<?xml version="1.0" encoding="UTF-8"?>
<svg width="27px" height="24px" viewBox="0 0 27 24" version="1.1" xmlns="http://www.w3.org/2000/svg" xmlns:xlink="http://www.w3.org/1999/xlink">
    <!-- Generator: Sketch 55.2 (78181) - https://sketchapp.com -->
    <title>bank-tp</title>
    <desc>Created with Sketch.</desc>
    <defs>
        <rect id="path-1" x="0" y="0" width="36" height="36"></rect>
        <polygon id="path-3" points="25.523305 0.07488 0.348378623 0.07488 0.348378623 7.705632 25.523305 7.705632 25.523305 0.07488"></polygon>
        <polygon id="path-5" points="0.483642534 20.64 16.1796866 20.64 16.1796866 0.347616 0.483642534 0.347616 0.483642534 20.64"></polygon>
    </defs>
    <g id="Page-1" stroke="none" stroke-width="1" fill="none" fill-rule="evenodd">
        <g id="bank-tp" transform="translate(-4.000000, -6.000000)">
            <mask id="mask-2" fill="white">
                <use xlink:href="#path-1"></use>
            </mask>
            <g id="Mask"></g>
            <g id="tpbank" mask="url(#mask-2)">
                <g transform="translate(4.000000, 6.000000)" id="Page-1">
                    <g>
                        <g id="Group-3" transform="translate(1.480992, 0.405216)">
                            <mask id="mask-4" fill="white">
                                <use xlink:href="#path-3"></use>
                            </mask>
                            <g id="Clip-2"></g>
                            <path d="M0.867713058,0.233472 L7.90834777,3.141312 L18.9614828,7.705632 L24.9550563,3.316032 L24.9550563,3.315552 C24.9935621,3.288192 25.0300932,3.258432 25.0661307,3.227232 L25.0888392,3.188352 C25.5800348,2.353632 25.6575401,1.570752 25.3070387,0.984192 C24.957031,0.397632 24.2199907,0.074592 23.2306883,0.074592 L0.806005069,0.074592 C0.646551625,0.074592 0.494009477,0.083712 0.348378623,0.100512 C0.53103427,0.119232 0.705297631,0.164832 0.867219394,0.233952 L0.867713058,0.233472 Z" id="Fill-1" fill="#FDC016" mask="url(#mask-4)"></path>
                        </g>
                        <path d="M11.764011,22.377408 L11.7635174,22.377408 L9.38899394,3.546528 L2.34885289,0.638688 L2.34786556,0.639168 C2.18643747,0.570048 2.0121741,0.524448 1.82902479,0.505728 C1.07174435,0.591168 0.505511846,0.896928 0.213756474,1.387968 C-0.134770248,1.973568 -0.0547966942,2.755008 0.43787989,3.588288 L11.7087207,22.634688 C11.8035041,22.795008 11.9047052,22.941888 12.0103493,23.073408 C12.0029444,23.061888 11.9945521,23.051808 11.9881344,23.041248 C11.8632375,22.830048 11.7901752,22.604448 11.764011,22.377408" id="Fill-4" fill="#F68D20"></path>
                        <g id="Group-8" transform="translate(10.366942, 3.285216)">
                            <mask id="mask-6" fill="white">
                                <use xlink:href="#path-5"></use>
                            </mask>
                            <g id="Clip-7"></g>
                            <path d="M16.0691059,0.435936 L10.0755323,4.826016 L0.483642534,11.850816 L1.39642711,19.092096 L1.39692077,19.092096 C1.42308496,19.319136 1.49614722,19.545216 1.62104419,19.755936 C1.62795548,19.766496 1.63634777,19.776576 1.64325906,19.788096 C2.08656926,20.341056 2.61824529,20.640096 3.17608551,20.640096 C3.86770865,20.640096 4.51934501,20.180736 5.01054061,19.344576 L16.1796866,0.347616 C16.1441428,0.378816 16.1076117,0.408096 16.0691059,0.435456 L16.0691059,0.435936 Z" id="Fill-6" fill="#F37C20" mask="url(#mask-6)"></path>
                        </g>
                    </g>
                </g>
            </g>
        </g>
    </g>
</svg>