<?xml version="1.0" encoding="UTF-8"?>
<svg width="25px" height="26px" viewBox="0 0 25 26" version="1.1" xmlns="http://www.w3.org/2000/svg" xmlns:xlink="http://www.w3.org/1999/xlink">
    <!-- Generator: Sketch 55.2 (78181) - https://sketchapp.com -->
    <title>bank-phuongdong</title>
    <desc>Created with Sketch.</desc>
    <defs>
        <rect id="path-1" x="0" y="0" width="36" height="36"></rect>
        <polygon id="path-3" points="0.278947368 0.12237931 20.7647205 0.12237931 20.7647205 10.0121966 0.278947368 10.0121966 0.278947368 0.12237931"></polygon>
    </defs>
    <g id="Page-1" stroke="none" stroke-width="1" fill="none" fill-rule="evenodd">
        <g id="bank-phuongdong" transform="translate(-6.000000, -5.000000)">
            <mask id="mask-2" fill="white">
                <use xlink:href="#path-1"></use>
            </mask>
            <g id="Mask"></g>
            <g id="ocb" mask="url(#mask-2)">
                <g transform="translate(6.000000, 5.000000)" id="Page-1">
                    <g>
                        <g id="Group-3" transform="translate(0.000000, 7.946810)" fill="#E29617">
                            <path d="M0.0442105263,6.62825172 C0.370964912,9.62676897 1.71657895,12.3114931 3.71964912,14.3103552 C3.485,13.6966655 3.42666667,13.0498034 3.56877193,12.4002517 C3.9595614,10.6049069 5.74114035,9.34525172 8.25824561,8.99201034 L8.25824561,0.323251724 C1.75298246,-0.792955172 -0.342192982,3.41052759 0.0442105263,6.62825172" id="Fill-1"></path>
                        </g>
                        <path d="M24.7709649,11.7529862 C24.4442105,8.75446897 23.0985965,6.0701931 21.0955263,4.07088276 C21.3297368,4.68367586 21.3889474,5.33098621 21.2468421,5.98098621 C20.855614,7.77633103 19.0735965,9.03598621 16.5569298,9.38877931 L16.5569298,18.0579862 C23.062193,19.1737448 25.1573684,14.9707103 24.7709649,11.7529862" id="Fill-4" fill="#E29617"></path>
                        <g id="Group-8" transform="translate(0.000000, 0.326121)">
                            <mask id="mask-4" fill="white">
                                <use xlink:href="#path-3"></use>
                            </mask>
                            <g id="Clip-7"></g>
                            <path d="M0.278947368,10.0121966 C1.975,7.64754138 5.00964912,6.28747241 10.6105263,7.89947241 C20.4491228,10.731231 23.6100877,4.16398966 18.0026316,1.47836897 C16.320614,0.610955172 14.4201754,0.122334483 12.4078947,0.122334483 C6.48815789,0.122334483 1.53421053,4.34957586 0.278947368,10.0121966" id="Fill-6" fill="#E29617" mask="url(#mask-4)"></path>
                        </g>
                        <path d="M24.5349561,15.9877586 C22.8384649,18.3528621 19.8033772,19.7124828 14.2025,18.1004828 C4.3652193,15.2696207 1.20469298,21.8373103 6.81127193,24.5220345 C8.49285088,25.389 10.3928509,25.8776207 12.4060088,25.8776207 C18.3257456,25.8776207 23.2792544,21.6508276 24.5349561,15.9877586" id="Fill-9" fill="#E29617"></path>
                    </g>
                </g>
            </g>
        </g>
    </g>
</svg>