<?xml version="1.0" encoding="UTF-8"?>
<svg width="36px" height="14px" viewBox="0 0 36 14" version="1.1" xmlns="http://www.w3.org/2000/svg" xmlns:xlink="http://www.w3.org/1999/xlink">
    <!-- Generator: Sketch 55.2 (78181) - https://sketchapp.com -->
    <title>bank-navi</title>
    <desc>Created with Sketch.</desc>
    <defs>
        <rect id="path-1" x="0" y="0" width="36" height="36"></rect>
    </defs>
    <g id="Page-1" stroke="none" stroke-width="1" fill="none" fill-rule="evenodd">
        <g id="bank-navi" transform="translate(0.000000, -11.000000)">
            <mask id="mask-2" fill="white">
                <use xlink:href="#path-1"></use>
            </mask>
            <g id="Mask"></g>
            <g id="navi" mask="url(#mask-2)">
                <g transform="translate(-0.295168, 11.009427)" id="Page-1">
                    <g transform="translate(0.435147, 0.000000)">
                        <polygon id="Fill-1" fill="#0C704E" points="0 13.9448717 35.7118552 13.9448717 35.7118552 7.92452829e-05 0 7.92452829e-05"></polygon>
                        <g id="Group-10" transform="translate(2.631095, 3.907136)" fill="#FEFEFE">
                            <path d="M1.7513359,2.71988302 L1.7513359,2.90637358 C1.7513359,3.90909057 1.74817858,4.9120717 1.7542301,5.91505283 C1.75528254,6.06509057 1.72186763,6.12003396 1.56189704,6.11633585 C1.10040295,6.10550566 0.638645738,6.10999623 0.177414749,6.11422264 C0.0690136271,6.11527925 0.0206014754,6.08886415 0.0206014754,5.96788302 C0.0237587897,4.02637358 0.0232325706,2.0851283 0.0237587897,0.143618868 C0.0237587897,0.121430189 0.0298103086,0.0989773585 0.0348093895,0.0656943396 C0.0890099507,0.0619962264 0.139790088,0.0559207547 0.190307116,0.0559207547 C0.634172876,0.0551283019 1.07856486,0.064109434 1.52216751,0.0509018868 C1.69713534,0.0456188679 1.82421724,0.107430189 1.93130281,0.228939623 C2.14047488,0.466939623 2.34122744,0.7126 2.5527675,0.948486792 C2.86823581,1.3000717 3.18975565,1.64610943 3.50890749,1.99373208 C3.78754048,2.29750566 4.067489,2.59969434 4.34533266,2.90426038 C4.53345596,3.11029811 4.71868507,3.31924151 4.94259127,3.56833585 L4.94259127,3.33244906 C4.94285438,2.30622264 4.94601169,1.27973208 4.93996017,0.253241509 C4.93917084,0.102411321 4.97442752,0.0482603774 5.13387189,0.0516943396 C5.6011544,0.0619962264 6.06870001,0.0582981132 6.53598252,0.0535433962 C6.64780407,0.0522226415 6.68990159,0.0833924528 6.68963848,0.201467925 C6.68674428,2.11973208 6.68674428,4.03746792 6.68990159,5.95546792 C6.6901647,6.08146792 6.64517297,6.11580755 6.52598436,6.11475094 C6.03528511,6.10973208 5.54458585,6.11633585 5.0538866,6.10788302 C4.987583,6.10656226 4.91180745,6.05505283 4.85892244,6.00644906 C4.70552959,5.8651283 4.55871448,5.71641132 4.41505668,5.56531698 C4.30034093,5.44486415 4.197202,5.31358113 4.08327558,5.19233585 C3.89304739,4.99026038 3.69334727,4.79716604 3.50706573,4.59139245 C3.32552016,4.39063774 3.16055049,4.17482642 2.97926803,3.9735434 C2.86034253,3.84173208 2.71852649,3.73105283 2.5998641,3.59924151 C2.43463132,3.4156566 2.28334335,3.2196566 2.12205721,3.03237358 C2.02128627,2.91535472 1.91288514,2.80467547 1.80790445,2.69135472 C1.78896056,2.70086415 1.77027978,2.71037358 1.7513359,2.71988302" id="Fill-2"></path>
                            <path d="M13.497992,1.76981132 C13.1962054,2.35226415 12.9170462,2.89086792 12.6221004,3.46011321 L14.391775,3.46011321 C14.0952506,2.89932075 13.810303,2.36071698 13.497992,1.76981132 M9.33980912,6.11113208 C9.26955888,5.86467925 9.43137124,5.71015094 9.51504006,5.54135849 C9.72421213,5.12083019 9.9610107,4.71377358 10.1830751,4.29958491 C10.3109464,4.06158491 10.4317136,3.81988679 10.5566907,3.58030189 C10.8555831,3.00788679 11.1552648,2.436 11.4538941,1.86358491 C11.7483137,1.29935849 12.0385235,0.733018868 12.3405732,0.173018868 C12.3708308,0.116754717 12.4689706,0.0668301887 12.5360636,0.0660377358 C13.1901538,0.0581132075 13.8445072,0.0594339623 14.4985975,0.0647169811 C14.5396426,0.0649811321 14.5977898,0.108830189 14.6188385,0.148188679 C14.7524982,0.398075472 14.8732654,0.654566038 15.006662,0.904188679 C15.2671404,1.39128302 15.535249,1.87441509 15.7962536,2.36098113 C16.099882,2.92732075 16.3993007,3.49577358 16.7005611,4.06316981 C17.0155032,4.65645283 17.3291297,5.25026415 17.6448611,5.84275472 C17.7440534,6.02898113 17.699851,6.11218868 17.495678,6.11218868 C16.9757736,6.11218868 16.4558692,6.10769811 15.9362279,6.11535849 C15.8080936,6.11720755 15.7507357,6.06464151 15.69864,5.95818868 C15.51841,5.59101887 15.3376537,5.22358491 15.1374274,4.86750943 C15.0937512,4.78958491 14.9693004,4.71245283 14.8811587,4.71139623 C13.964222,4.70030189 13.0472854,4.70584906 12.1303487,4.7029434 C12.0045823,4.70267925 11.924597,4.75207547 11.8677654,4.86222642 C11.6633293,5.25871698 11.4567883,5.65415094 11.2460376,6.04720755 C11.2289355,6.07916981 11.1736825,6.10796226 11.1357947,6.10822642 C10.5409041,6.11218868 9.94601346,6.11113208 9.33980912,6.11113208" id="Fill-4"></path>
                            <path d="M17.6502022,0.0557886792 L18.2419356,0.0557886792 C18.6155511,0.0557886792 18.9896928,0.066090566 19.3630452,0.0502415094 C19.5153856,0.0439018868 19.6069478,0.109939623 19.665095,0.222203774 C19.8913691,0.661486792 20.1013305,1.10948679 20.3291834,1.54797736 C20.4704732,1.81978868 20.6401788,2.07627925 20.7838366,2.34676981 C20.9666978,2.69095849 21.1314043,3.0446566 21.313213,3.38963774 C21.4458202,3.64058113 21.5944771,3.8830717 21.7328727,4.13137358 C21.772076,4.20137358 21.8004918,4.27744906 21.8436418,4.37227925 C22.1830531,3.73567547 22.5090458,3.12786415 22.8313549,2.51820377 C23.1331415,1.94790189 23.4299291,1.37495849 23.7311895,0.804392453 C23.8530092,0.573788679 23.979828,0.345562264 24.1082254,0.118392453 C24.124012,0.0906566038 24.1640046,0.0586943396 24.1929467,0.0586943396 C24.8170425,0.0552603774 25.4408751,0.0557886792 26.1094364,0.0557886792 C26.0607612,0.174128302 26.0307667,0.268166038 25.9852487,0.354015094 C25.7681834,0.762656604 25.5455927,1.16839245 25.3272118,1.57624151 C25.0143746,2.16001509 24.7010112,2.74352453 24.393173,3.32993962 C24.2703009,3.56424151 24.1676882,3.80963774 24.0440267,4.04393962 C23.8682695,4.37782642 23.6814618,4.70616604 23.49939,5.03688302 C23.3204755,5.36205283 23.1447184,5.6890717 22.9586999,6.01027925 C22.9308103,6.05861887 22.8545086,6.10748679 22.800308,6.10827925 C22.1577945,6.11488302 21.5152811,6.11488302 20.8730308,6.10801509 C20.8204089,6.10722264 20.7464751,6.05439245 20.7196379,6.00552453 C20.4131153,5.44895849 20.1123811,4.88975094 19.8134887,4.32922264 C19.5014408,3.74333585 19.1912347,3.1566566 18.8833966,2.5686566 C18.6910635,2.20122264 18.504782,1.83035472 18.3148169,1.4616 C18.1285354,1.09944906 17.9414645,0.737562264 17.7536043,0.376203774 C17.7065077,0.2856 17.6546751,0.197901887 17.6046843,0.108618868 C17.6199447,0.0909207547 17.6349419,0.0734867925 17.6502022,0.0557886792" id="Fill-6"></path>
                            <path d="M28.7028543,0.055154717 C29.2709078,0.055154717 29.8247533,0.0527773585 30.3783358,0.0604377358 C30.4154342,0.0609660377 30.4785805,0.133607547 30.4830534,0.177192453 C30.4964719,0.316664151 30.4883156,0.458249057 30.4883156,0.599041509 L30.4883156,5.87783396 C30.4883156,6.1118717 30.4880524,6.11213585 30.2565161,6.1124 C29.7892336,6.11266415 29.321951,6.10975849 28.8544054,6.11451321 C28.7365324,6.11583396 28.687594,6.08202264 28.6878571,5.95549434 C28.6907513,4.02613585 28.6902251,2.09651321 28.6910144,0.166626415 C28.6910144,0.138098113 28.6968028,0.10930566 28.7028543,0.055154717" id="Fill-8"></path>
                        </g>
                    </g>
                </g>
            </g>
        </g>
    </g>
</svg>