<?xml version="1.0" encoding="UTF-8"?>
<svg width="26px" height="25px" viewBox="0 0 26 25" version="1.1" xmlns="http://www.w3.org/2000/svg" xmlns:xlink="http://www.w3.org/1999/xlink">
    <!-- Generator: Sketch 55.2 (78181) - https://sketchapp.com -->
    <title>bank-donga</title>
    <desc>Created with Sketch.</desc>
    <defs>
        <rect id="path-1" x="0" y="0" width="36" height="36"></rect>
        <polygon id="path-3" points="23.7015663 13.5159488 0.0222322286 13.5159488 0.0222322286 0.0924761218 23.7015663 0.0924761218 23.7015663 13.5159488"></polygon>
        <polygon id="path-5" points="17.7488728 0.073434407 17.7488728 19.701293 0.039667581 19.701293 0.039667581 0.073434407 17.7488728 0.073434407"></polygon>
    </defs>
    <g id="Page-1" stroke="none" stroke-width="1" fill="none" fill-rule="evenodd">
        <g id="bank-donga" transform="translate(-5.000000, -5.000000)">
            <mask id="mask-2" fill="white">
                <use xlink:href="#path-1"></use>
            </mask>
            <g id="Mask"></g>
            <g id="donga" mask="url(#mask-2)">
                <g transform="translate(5.000000, 5.000000)" id="Page-1">
                    <g>
                        <path d="M12.9084656,0.164597225 C2.38722145,3.42261669 -2.2268277,15.6832042 1.02757992,19.6987926 C2.13344659,20.041557 3.37029383,20.3336367 4.67406754,20.4739322 C2.44237116,17.6585601 2.89850526,15.0726888 3.89306716,12.5826455 C3.89249269,16.5549829 5.71645459,18.856749 8.33075211,20.5300234 C9.6666965,20.3820238 11.0694237,20.2333484 11.9620161,19.8435484 C6.69636735,17.3180934 4.11452773,7.84152099 12.9084656,0.164597225" id="Fill-1" fill="#F58C31"></path>
                        <g id="Group-5" transform="translate(1.005333, 10.604208)">
                            <mask id="mask-4" fill="white">
                                <use xlink:href="#path-3"></use>
                            </mask>
                            <g id="Clip-4"></g>
                            <path d="M0.0222322286,9.09463867 C8.28090194,16.0406199 21.6335957,13.8190034 23.7015663,9.15883943 C23.5391332,8.11108308 23.0733766,6.77111191 22.5033526,5.65496486 C21.0658696,8.72808614 18.5577065,9.7488106 15.7205122,10.3814922 C19.3761915,8.39586412 20.63214,5.76160569 20.8648029,2.79431429 C20.1490056,1.67546405 19.1337625,0.597026491 18.3645389,0.0924761218 C18.6733198,5.64699045 11.4837503,12.4233465 0.0222322286,9.09463867" id="Fill-3" fill="#F8A56B" mask="url(#mask-4)"></path>
                        </g>
                        <g id="Group-8" transform="translate(7.324571, 0.061768)">
                            <mask id="mask-6" fill="white">
                                <use xlink:href="#path-5"></use>
                            </mask>
                            <g id="Clip-7"></g>
                            <path d="M17.3823857,19.701293 C19.6449602,9.4972923 10.906172,-0.541678681 5.5839373,0.102896918 C4.70096739,0.759231393 3.87515787,1.61627771 3.1078013,2.67903676 C6.8144653,2.2678816 8.90541501,3.94075059 10.6996478,5.99625608 C7.04454301,4.00968192 4.0141811,4.34541809 1.16722072,5.63943503 C0.596765867,6.81518742 0.129860343,7.92863128 0.039667581,8.8163588 C4.99667901,5.78743467 14.7148055,8.69552622 17.3823857,19.701293" id="Fill-6" fill="#F8B76A" mask="url(#mask-6)"></path>
                        </g>
                    </g>
                </g>
            </g>
        </g>
    </g>
</svg>