<?xml version="1.0" encoding="UTF-8"?>
<svg width="33px" height="13px" viewBox="0 0 33 13" version="1.1" xmlns="http://www.w3.org/2000/svg" xmlns:xlink="http://www.w3.org/1999/xlink">
    <!-- Generator: Sketch 55.2 (78181) - https://sketchapp.com -->
    <title>bank-acb</title>
    <desc>Created with Sketch.</desc>
    <defs>
        <rect id="path-1" x="0" y="0" width="36" height="36"></rect>
        <polygon id="path-3" points="11.60215 12.75 0.24415 12.75 0.24415 0.110875 11.60215 0.110875"></polygon>
        <polygon id="path-5" points="9.59575 12.64485 9.59575 0.1811 0.041075 0.1811 0.041075 12.64485 9.59575 12.64485"></polygon>
    </defs>
    <g id="Page-1" stroke="none" stroke-width="1" fill="none" fill-rule="evenodd">
        <g id="bank-acb" transform="translate(-2.000000, -11.000000)">
            <mask id="mask-2" fill="white">
                <use xlink:href="#path-1"></use>
            </mask>
            <g id="Mask"></g>
            <g id="acb" mask="url(#mask-2)">
                <g transform="translate(2.000000, 11.000000)" id="Page-1">
                    <g>
                        <path d="M4.546575,0.3202 L7.5e-05,12.78395 L2.949075,12.78395 L3.897075,9.9927 L7.776575,9.9927 L8.742075,12.78395 L11.691325,12.78395 L7.144575,0.3202 L4.546575,0.3202 Z M5.845575,3.60295 L7.302575,8.0092 L4.353575,8.0092 L5.845575,3.60295 Z" id="Fill-1" fill="#204299"></path>
                        <g id="Group-10" transform="translate(11.250000, 0.139150)">
                            <g id="Group-4">
                                <mask id="mask-4" fill="white">
                                    <use xlink:href="#path-3"></use>
                                </mask>
                                <g id="Clip-3"></g>
                                <path d="M0.24415,6.307625 C0.24415,5.558875 0.38465,4.812875 0.6654,4.069375 C0.9464,3.326375 1.3559,2.662125 1.8944,2.076875 C2.4324,1.491875 3.0879,1.017875 3.8604,0.655125 C4.63265,0.292375 5.5104,0.110875 6.49365,0.110875 C7.66365,0.110875 8.67915,0.362625 9.53915,0.865625 C10.3994,1.369125 11.04015,2.024375 11.4614,2.831875 L9.2494,4.376625 C9.1094,4.049125 8.93065,3.776875 8.7144,3.560375 C8.49765,3.343875 8.26065,3.168375 8.0034,3.033625 C7.74565,2.899375 7.4824,2.805375 7.2134,2.752875 C6.9439,2.700125 6.68065,2.673875 6.4234,2.673875 C5.87315,2.673875 5.3934,2.785125 4.9839,3.007375 C4.57415,3.229625 4.23465,3.516375 3.96565,3.867625 C3.6964,4.218625 3.4974,4.616625 3.3689,5.061375 C3.2399,5.506125 3.17565,5.956625 3.17565,6.412875 C3.17565,6.904625 3.25165,7.378375 3.4039,7.834625 C3.5559,8.291375 3.7754,8.695125 4.06215,9.046125 C4.3489,9.397125 4.69415,9.675375 5.0979,9.879875 C5.50165,10.084625 5.95515,10.187375 6.4584,10.187375 C6.7159,10.187375 6.9819,10.155125 7.2574,10.090625 C7.53215,10.026375 7.7954,9.926875 8.0469,9.792125 C8.2989,9.657625 8.5299,9.482125 8.74065,9.265625 C8.95115,9.049125 9.12065,8.782625 9.2494,8.466875 L11.60215,9.853625 C11.41465,10.310125 11.13665,10.719625 10.76815,11.082625 C10.3994,11.445375 9.97515,11.749625 9.49515,11.995375 C9.01515,12.240875 8.5064,12.428375 7.96815,12.556875 C7.42965,12.685625 6.9029,12.750125 6.38815,12.750125 C5.4869,12.750125 4.65915,12.565625 3.90415,12.197125 C3.1494,11.828375 2.4999,11.340125 1.95565,10.731375 C1.4114,10.123125 0.99015,9.432375 0.6919,8.659875 C0.3934,7.887375 0.24415,7.103625 0.24415,6.307625" id="Fill-2" fill="#204299" mask="url(#mask-4)"></path>
                            </g>
                            <g id="Group-7" transform="translate(12.000000, 0.000000)">
                                <mask id="mask-6" fill="white">
                                    <use xlink:href="#path-5"></use>
                                </mask>
                                <g id="Clip-6"></g>
                                <path d="M6.664075,8.8706 C6.664075,8.48435 6.552825,8.15685 6.330575,7.88735 C6.108075,7.61835 5.827075,7.4836 5.487825,7.4836 L2.670075,7.4836 L2.670075,10.2046 L5.365075,10.2046 C5.739575,10.2046 6.049575,10.08185 6.295325,9.83585 C6.541325,9.59035 6.664075,9.2686 6.664075,8.8706 L6.664075,8.8706 Z M2.670075,2.6386 L2.670075,5.21935 L4.996325,5.21935 C5.312325,5.21935 5.593325,5.11385 5.838825,4.9031 C6.084825,4.6926 6.207575,4.3651 6.207575,3.9201 C6.207575,3.5106 6.099325,3.1946 5.882825,2.97235 C5.666325,2.7501 5.405825,2.6386 5.101575,2.6386 L2.670075,2.6386 Z M9.595825,9.44985 C9.595825,9.98835 9.484325,10.4566 9.262325,10.85435 C9.039575,11.2521 8.735325,11.58285 8.349325,11.84585 C7.963075,12.10935 7.512575,12.3086 6.997575,12.44285 C6.482325,12.5776 5.938325,12.64485 5.365075,12.64485 L0.041075,12.64485 L0.041075,0.1811 L6.225075,0.1811 C6.658075,0.1811 7.050325,0.27485 7.401325,0.46185 C7.752575,0.64935 8.050825,0.89185 8.296575,1.19035 C8.542325,1.48885 8.732325,1.8286 8.867325,2.2086 C9.001575,2.5891 9.069075,2.97835 9.069075,3.37585 C9.069075,3.97285 8.919575,4.5346 8.621325,5.06135 C8.323075,5.58785 7.875325,5.98585 7.278325,6.25485 C7.992075,6.4656 8.556825,6.84035 8.972325,7.37835 C9.387825,7.91685 9.595825,8.6071 9.595825,9.44985 L9.595825,9.44985 Z" id="Fill-5" fill="#204299" mask="url(#mask-6)"></path>
                            </g>
                            <path d="M8.977775,6.4861 C8.977775,7.6491 8.035025,8.59185 6.872025,8.59185 C5.709275,8.59185 4.766525,7.6491 4.766525,6.4861 C4.766525,5.32335 5.709275,4.3806 6.872025,4.3806 C8.035025,4.3806 8.977775,5.32335 8.977775,6.4861" id="Fill-8" fill="#29ABE2"></path>
                        </g>
                    </g>
                </g>
            </g>
        </g>
    </g>
</svg>