<?xml version="1.0" encoding="UTF-8"?>
<svg width="30px" height="26px" viewBox="0 0 30 26" version="1.1" xmlns="http://www.w3.org/2000/svg" xmlns:xlink="http://www.w3.org/1999/xlink">
    <!-- Generator: Sketch 55.2 (78181) - https://sketchapp.com -->
    <title>bank-hd</title>
    <desc>Created with Sketch.</desc>
    <defs>
        <rect id="path-1" x="0" y="0" width="36" height="36"></rect>
    </defs>
    <g id="Page-1" stroke="none" stroke-width="1" fill="none" fill-rule="evenodd">
        <g id="bank-hd" transform="translate(-3.000000, -5.000000)">
            <mask id="mask-2" fill="white">
                <use xlink:href="#path-1"></use>
            </mask>
            <g id="Mask"></g>
            <g id="hd-bank" mask="url(#mask-2)">
                <g transform="translate(3.000000, 5.000000)" id="Page-1">
                    <g transform="translate(0.000000, 0.634146)">
                        <path d="M0.1986875,7.83614634 C0.1986875,9.34097561 1.1961875,9.83434146 2.8136875,9.85970732 C4.5568125,9.92756098 7.4318125,9.63839024 9.8786875,9.20526829 C9.9286875,9.20526829 9.9286875,9.16214634 9.9036875,9.16214634 C5.9186875,7.72960976 6.7443125,0.824390244 6.6274375,0.365268293 C6.5805625,0.182634146 6.4549375,0.118585366 6.2705625,0.118585366 C4.8918125,0.118585366 0.1986875,4.62165854 0.1986875,7.83614634" id="Fill-1" fill="#FCD600"></path>
                        <path d="M29.4693125,6.59848293 C29.3774375,6.59848293 29.2643125,6.63716585 29.1086875,6.69170244 C26.5530625,7.81033659 15.9886875,11.4414585 5.3449375,11.7984829 C5.7805625,17.9636537 9.7905625,24.7369707 13.0674375,24.7369707 C21.4149375,24.7369707 28.1280625,10.7229707 29.5324375,7.7298 C29.9305625,6.90921463 29.8130625,6.59848293 29.4861875,6.59848293 L29.4693125,6.59848293 Z" id="Fill-589" fill="#FCD600"></path>
                    </g>
                </g>
            </g>
        </g>
    </g>
</svg>