<?xml version="1.0" encoding="UTF-8"?>
<svg width="25px" height="26px" viewBox="0 0 25 26" version="1.1" xmlns="http://www.w3.org/2000/svg" xmlns:xlink="http://www.w3.org/1999/xlink">
    <!-- Generator: Sketch 55.2 (78181) - https://sketchapp.com -->
    <title>bank-ocean</title>
    <desc>Created with Sketch.</desc>
    <defs>
        <rect id="path-1" x="0" y="0" width="36" height="36"></rect>
        <polygon id="path-3" points="0.000217391304 0.177574468 24.8255435 0.177574468 24.8255435 18.3741447 0.000217391304 18.3741447 0.000217391304 0.177574468"></polygon>
    </defs>
    <g id="Page-1" stroke="none" stroke-width="1" fill="none" fill-rule="evenodd">
        <g id="bank-ocean" transform="translate(-6.000000, -5.000000)">
            <mask id="mask-2" fill="white">
                <use xlink:href="#path-1"></use>
            </mask>
            <g id="Mask"></g>
            <g id="ocean-bank" mask="url(#mask-2)">
                <g transform="translate(6.000000, 5.000000)" id="Page-1">
                    <g>
                        <path d="M12.4127174,25.8225362 C17.0143478,25.8225362 21.0311957,23.273983 23.1746739,19.486834 C14.6822826,17.8012596 11.0920652,23.0145362 3.51543478,21.997217 C5.77086957,24.3565787 8.92358696,25.8225362 12.4127174,25.8225362" id="Fill-1" fill="#1D3666"></path>
                        <g id="Group-5" transform="translate(0.000000, 0.375728)">
                            <mask id="mask-4" fill="white">
                                <use xlink:href="#path-3"></use>
                            </mask>
                            <g id="Clip-4"></g>
                            <path d="M12.4127174,0.17746383 C5.55728261,0.17746383 0.000217391304,5.8344 0.000217391304,12.8123574 C0.000217391304,13.7837617 0.107826087,14.7297191 0.311630435,15.6386128 C0.974673913,15.8333362 2.42847826,15.8488255 5.57086957,15.1789106 C6.92195652,14.8912511 8.95184783,14.5964 11.5496739,15.1291234 C11.3730435,14.6008255 11.2763043,14.0354638 11.2763043,13.4468681 C11.2763043,10.5619745 13.573587,8.22308085 16.4078261,8.22308085 C19.2420652,8.22308085 21.5393478,10.5619745 21.5393478,13.4468681 C21.5393478,15.1838894 20.7061957,16.7217617 19.4241304,17.6715915 C20.6176087,17.6638468 22.2556522,17.7849957 23.5605435,18.3741447 C24.3697826,16.6957617 24.8257609,14.8082723 24.8257609,12.8123574 C24.8257609,5.8344 19.2681522,0.17746383 12.4127174,0.17746383" id="Fill-3" fill="#70C3D4" mask="url(#mask-4)"></path>
                        </g>
                        <path d="M12.0183696,16.5304128 C7.54826087,15.5219447 4.895,17.9172638 1.11673913,17.7916894 L1.15478261,17.8951362 C2.43467391,19.5281574 3.80967391,20.2185404 5.3276087,20.3795191 L5.96076087,20.4160298 C8.37869565,20.4519872 11.1569565,19.3511362 14.4705435,18.6602 C13.446087,18.2347957 12.5868478,17.4830085 12.0183696,16.5304128" id="Fill-6" fill="#1C87C5"></path>
                    </g>
                </g>
            </g>
        </g>
    </g>
</svg>