<?xml version="1.0" encoding="UTF-8"?>
<svg width="28px" height="23px" viewBox="0 0 28 23" version="1.1" xmlns="http://www.w3.org/2000/svg" xmlns:xlink="http://www.w3.org/1999/xlink">
    <!-- Generator: Sketch 55.2 (78181) - https://sketchapp.com -->
    <title>bank-lienviet</title>
    <desc>Created with Sketch.</desc>
    <defs>
        <rect id="path-1" x="0" y="0" width="36" height="36"></rect>
        <polygon id="path-3" points="27.7356232 22.6847789 0 22.6847789 0 2.86710227e-15 27.7356232 0"></polygon>
    </defs>
    <g id="Page-1" stroke="none" stroke-width="1" fill="none" fill-rule="evenodd">
        <g id="bank-lienviet" transform="translate(-4.000000, -6.000000)">
            <mask id="mask-2" fill="white">
                <use xlink:href="#path-1"></use>
            </mask>
            <g id="Mask"></g>
            <g id="lienviet" mask="url(#mask-2)">
                <g transform="translate(4.000000, 6.000000)" id="Page-1">
                    <g>
                        <mask id="mask-4" fill="white">
                            <use xlink:href="#path-3"></use>
                        </mask>
                        <g id="Clip-2"></g>
                        <path d="M9.47678261,8.87719298 L9.47678261,8.83845614 L9.47678261,1.11207018 C6.72913043,2.61312281 4.80971014,5.52484211 4.80971014,8.87719298 L9.47678261,8.87719298 Z M9.47678261,21.9742807 C3.97863768,20.1165263 -0.000202898551,14.996807 -0.000202898551,8.92521053 L-0.000202898551,8.83845614 L4.80971014,8.83845614 C4.80971014,12.2004912 6.68692754,15.109386 9.47678261,16.6132632 L9.47678261,21.9742807 Z M13.8175942,13.1067719 C13.7335942,13.1067719 13.6621739,13.0615789 13.5461159,12.9784561 C12.5084928,11.4003333 11.2415942,10.073193 9.62855072,9.07935088 C9.56118841,9.00550877 9.52547826,8.92521053 9.47678261,8.87719298 L9.47678261,8.83845614 L9.47678261,1.11207018 C10.7501739,0.411578947 12.2755652,0 13.8175942,0 L13.8175942,4.58345614 C13.7335942,4.58345614 13.6621739,4.6185614 13.5461159,4.70531579 C12.5084928,6.27415789 11.2415942,7.57870175 9.62855072,8.60724561 C9.52547826,8.68431579 9.47678261,8.71982456 9.47678261,8.80657895 L13.8175942,8.80657895 L13.8175942,13.1067719 Z M13.8175942,22.6848596 C12.3112754,22.6428947 10.8309275,22.402 9.47678261,21.9742807 L9.47678261,16.6132632 C10.7501739,17.3202105 12.2755652,17.7156491 13.8175942,17.7156491 L13.8175942,22.6848596 Z M18.2131884,21.9742807 C16.8525507,22.4439649 15.3823478,22.6848596 13.8593913,22.6848596 L13.8175942,22.6848596 L13.8175942,17.7156491 C15.4144058,17.7156491 16.8947536,17.3202105 18.2131884,16.6132632 L18.2131884,21.9742807 Z M13.8175942,0 C15.4144058,0 16.8947536,0.411578947 18.2131884,1.11207018 L18.2131884,8.83845614 L18.2131884,8.87719298 L18.162058,8.87719298 C18.162058,8.92521053 18.162058,8.95789474 18.1291884,9.00550877 C16.6070435,9.99249123 15.2914493,11.2522456 14.1377681,12.9457719 C14.0245507,13.0615789 13.9470435,13.1067719 13.8175942,13.1067719 L13.8175942,8.80657895 L18.2131884,8.80657895 C18.162058,8.7585614 18.162058,8.71982456 18.1291884,8.68431579 C16.6070435,7.69773684 15.2914493,6.4444386 14.1377681,4.70531579 C14.0245507,4.6185614 13.9470435,4.58345614 13.8175942,4.58345614 L13.8175942,0 Z M18.2131884,1.11207018 C20.9543478,2.61312281 22.7836812,5.48650877 22.8291304,8.83845614 L27.7356232,8.83845614 L27.7356232,8.92521053 C27.7356232,15.0319123 23.702,20.2069123 18.2131884,21.9742807 L18.2131884,16.6132632 C20.9543478,15.109386 22.7836812,12.2004912 22.8291304,8.87719298 L18.2131884,8.87719298 L18.2131884,8.83845614 L18.2131884,1.11207018 Z" id="Fill-1" fill="#F5871F" mask="url(#mask-4)"></path>
                    </g>
                </g>
            </g>
        </g>
    </g>
</svg>