<?xml version="1.0" encoding="UTF-8"?>
<svg width="27px" height="27px" viewBox="0 0 27 27" version="1.1" xmlns="http://www.w3.org/2000/svg" xmlns:xlink="http://www.w3.org/1999/xlink">
    <!-- Generator: Sketch 55.2 (78181) - https://sketchapp.com -->
    <title>bank-bidv</title>
    <desc>Created with Sketch.</desc>
    <defs>
        <rect id="path-1" x="0" y="0" width="36" height="36"></rect>
    </defs>
    <g id="Page-1" stroke="none" stroke-width="1" fill="none" fill-rule="evenodd">
        <g id="bank-bidv" transform="translate(-5.000000, -5.000000)">
            <mask id="mask-2" fill="white">
                <use xlink:href="#path-1"></use>
            </mask>
            <g id="Mask"></g>
            <g id="ico_bidv" mask="url(#mask-2)">
                <g transform="translate(5.000000, 5.000000)" id="Page-1">
                    <g>
                        <polygon id="Fill-1" fill="#FEFEFE" points="13.402239 1.18018052 0.8532 13.6766221 13.3896156 26.145713 13.402239 26.145713 25.9751221 13.6766221 13.402239 1.1921026"></polygon>
                        <polygon id="Fill-2" fill="#EB2226" points="11.2981675 5.30171299 11.2981675 15.7254662 13.4932325 15.7254662 15.5175312 15.7254662 15.5175312 5.30171299 13.4932325 5.30171299"></polygon>
                        <g id="Group-9" transform="translate(0.000000, 0.349808)">
                            <path d="M16.8650766,13.3327052 L15.7188039,13.3327052 L15.7188039,7.03399091 L16.8650766,7.03399091 C18.0053883,7.03399091 18.8714922,8.42466623 18.8714922,10.1740558 C18.9019987,11.8754065 18.0113494,13.3327052 16.8650766,13.3327052 L16.8650766,13.3327052 Z M9.01158312,13.3327052 L11.1035571,13.3327052 L11.1035571,7.03399091 L9.01158312,7.03399091 L9.01158312,13.3327052 Z" id="Fill-3" fill="#1F4396"></path>
                            <path d="M0,13.3267091 L0.109402597,13.4336571 L12.9081039,26.1618779 L13.4021688,26.6492805 L13.9085065,26.1618779 L26.8166104,13.3267091 L13.4021688,0.000981818182 L0,13.3267091 Z M13.4021688,25.7961506 L13.3895455,25.7961506 L0.853480519,13.3267091 L13.4021688,0.830267532 L13.4021688,0.84218961 L25.9750519,13.3267091 L13.4021688,25.7961506 Z" id="Fill-5" fill="#EB2226"></path>
                            <polygon id="Fill-7" fill="#EB2226" points="13.402239 19.3384519 7.34126494 13.3265688 1.41458961 13.3265688 11.8772649 23.7226208 11.9750961 23.8446468 13.402239 25.2346208 25.4077714 13.3265688 19.4565506 13.3265688"></polygon>
                        </g>
                    </g>
                </g>
            </g>
        </g>
    </g>
</svg>