<?xml version="1.0" encoding="UTF-8"?>
<svg width="26px" height="25px" viewBox="0 0 26 25" version="1.1" xmlns="http://www.w3.org/2000/svg" xmlns:xlink="http://www.w3.org/1999/xlink">
    <!-- Generator: Sketch 55.2 (78181) - https://sketchapp.com -->
    <title>bank-baoviet</title>
    <desc>Created with Sketch.</desc>
    <defs>
        <rect id="path-1" x="0" y="0" width="36" height="36"></rect>
        <polygon id="path-3" points="2.43049592 0.247687356 2.43049592 5.5653077 0.157066531 5.5653077 0.157066531 0.247687356"></polygon>
        <polygon id="path-5" points="0.0282212755 0.153156392 8.44571464 0.153156392 8.44571464 2.10737109 0.0282212755 2.10737109 0.0282212755 0.153156392"></polygon>
        <polygon id="path-7" points="18.4448411 8.87495646 0.230607398 8.87495646 0.230607398 0.109618391 18.4448411 0.109618391 18.4448411 8.87495646"></polygon>
    </defs>
    <g id="Page-1" stroke="none" stroke-width="1" fill="none" fill-rule="evenodd">
        <g id="bank-baoviet" transform="translate(-5.000000, -5.000000)">
            <mask id="mask-2" fill="white">
                <use xlink:href="#path-1"></use>
            </mask>
            <g id="Mask"></g>
            <g id="Page-1" mask="url(#mask-2)">
                <g transform="translate(5.000000, 5.000000)">
                    <path d="M6.38985551,14.8877395 C6.32027235,15.0190888 6.22275245,15.1329418 6.09082898,15.2120557 C5.97442592,15.2820411 5.84560653,15.3183016 5.71316571,15.3266695 C5.77266061,16.793573 5.91725908,18.0538168 6.10428,19.120333 C6.22999531,19.1538042 6.35596929,19.2085754 6.47418306,19.2887036 C6.56032133,19.3470247 6.63223255,19.4149815 6.69690092,19.4867419 C8.40362847,18.8368415 10.5550157,17.8841783 12.8080616,16.5542027 C12.7852984,16.4966423 12.7674499,16.4370533 12.7565856,16.3751822 C12.3473642,16.3188896 11.9319346,16.2560042 11.5079688,16.1844974 C9.5430851,15.852574 7.83972031,15.3913299 6.38985551,14.8877395" id="Fill-1" fill="#C48A2B"></path>
                    <path d="M8.71690791,2.49992309 C8.74018852,2.58309411 8.74018852,2.66981512 8.71613189,2.75653612 C10.5646125,3.19749467 13.1764385,4.15167928 16.4936671,6.17922647 C18.7286059,7.54495549 20.4128288,8.77553159 21.6725686,9.82176217 C21.8114763,9.72515193 21.9770273,9.66809864 22.155512,9.66809864 C22.3249431,9.66809864 22.4816992,9.72134838 22.6159508,9.80883009 C23.791363,8.81584925 24.3537191,8.22072003 24.3687222,8.20474511 C23.1542503,5.08253542 20.685988,2.56762633 17.5653513,1.25286493 C17.504563,1.24272212 13.6880946,0.621475165 8.71690791,2.49992309" id="Fill-3" fill="#C48A2B"></path>
                    <g id="Group-7" stroke-width="1" fill="none" transform="translate(22.763265, 7.961039)">
                        <mask id="mask-4" fill="white">
                            <use xlink:href="#path-3"></use>
                        </mask>
                        <g id="Clip-6"></g>
                        <path d="M1.60693133,0.247687356 L1.60693133,0.640214002 C1.60693133,0.640214002 1.14623388,1.22824326 0.157066531,2.18369572 C0.230271122,2.32011648 0.27553898,2.47580857 0.27553898,2.64417917 C0.27553898,2.77299282 0.250706327,2.89572079 0.206473163,3.00779882 C1.84051347,4.55381623 2.35191092,5.48999735 2.39148796,5.5653077 C2.41476857,5.25975563 2.43054765,4.95217499 2.43054765,4.6407908 C2.43054765,3.09325197 2.13747061,1.6131628 1.60693133,0.247687356" id="Fill-5" fill="#C48A2B" mask="url(#mask-4)"></path>
                    </g>
                    <path d="M14.8172043,5.74655967 C12.2765135,4.29410965 10.1168487,3.52350986 8.48410179,3.11602257 C8.34907423,3.24458265 8.16826148,3.35463211 7.95407985,3.42487106 C7.80792934,3.47228868 7.66333087,3.49485643 7.52597526,3.49815284 C6.16871556,6.25750359 5.94884311,9.07695047 5.94884311,9.07695047 C5.78717219,10.5991323 5.70879413,11.9838791 5.6896523,13.2474193 C5.92918393,13.338451 6.15241913,13.5139216 6.30814056,13.7634346 C6.43928801,13.9736443 6.50059362,14.2023646 6.50162832,14.41866 C8.08962474,14.9744858 9.89154413,15.430405 11.8168508,15.6079041 C12.1735615,15.6629289 12.5209599,15.7121215 12.863961,15.7580177 C13.0481365,15.4316729 13.4185569,15.2059954 13.8505416,15.2059954 C14.1239594,15.2059954 14.3712513,15.2990557 14.5649977,15.4479014 C14.6785554,15.3718303 14.7918543,15.29652 14.905412,15.2184203 C17.6763222,13.5598178 19.7902018,12.0543716 21.3114605,10.8661417 C21.2889559,10.7827171 21.2726594,10.6965032 21.2726594,10.605218 C21.2726594,10.4898435 21.2949054,10.3808084 21.330861,10.2788731 C19.7094957,8.91542626 17.5516416,7.32123051 14.8172043,5.74655967" id="Fill-8" fill="#C48A2B"></path>
                    <path d="M4.89363643,13.2932648 C4.96296092,13.2519328 5.0372002,13.225308 5.1132502,13.2060366 C5.11221551,13.1844832 5.11118082,13.1641976 5.1104048,13.1423905 C5.08764153,8.51929892 6.10578031,5.38517144 7.10089714,3.42760961 C7.01605224,3.39337764 6.94439969,3.34722786 6.88671551,3.29068171 C5.11454357,4.14876322 3.24640378,5.33471097 1.38240276,6.98038147 C0.713731837,8.25888234 0.266226735,9.66619687 0.0890354082,11.1554146 C0.116713469,11.1759537 1.85034306,12.4618082 4.57469204,13.658913 C4.64375786,13.5098137 4.74826194,13.3807465 4.89363643,13.2932648" id="Fill-10" fill="#C48A2B"></path>
                    <path d="M22.6110101,11.4043444 C22.4775346,11.4900511 22.3228479,11.5422866 22.1554861,11.5422866 C21.9485473,11.5422866 21.7610091,11.4634263 21.6104611,11.3371483 C20.1199846,12.6217349 17.9903259,14.2367234 15.1343121,15.9105402 C15.0830948,15.9404614 15.0331708,15.9686077 14.9827295,15.9980219 C21.3243683,16.576669 24.7846433,15.6171595 24.8156841,15.6082845 C24.9486422,15.0884656 25.0464208,14.5554611 25.1095371,14.0118066 C25.0919473,13.9887317 24.2838514,12.9460511 22.6110101,11.4043444" id="Fill-12" fill="#C48A2B"></path>
                    <path d="M7.01581944,2.45288582 C7.14851893,2.33294713 7.32286485,2.23101191 7.52618219,2.16457652 C7.64568934,2.12578029 7.76390311,2.10473396 7.87797811,2.095859 C8.47835923,1.20430623 8.94112607,0.795043957 8.96052658,0.778308325 C7.7025975,1.1492815 6.52796128,1.70789662 5.46972811,2.42118955 C5.49093934,2.41763957 6.01578781,2.34182208 7.01581944,2.45288582" id="Fill-14" fill="#C48A2B"></path>
                    <g id="Group-18" stroke-width="1" fill="none" transform="translate(8.277551, 0.100363)">
                        <mask id="mask-6" fill="white">
                            <use xlink:href="#path-5"></use>
                        </mask>
                        <g id="Clip-17"></g>
                        <path d="M0.195841684,2.10737109 C2.52079883,1.20821122 5.33387281,0.58189286 8.44571464,0.834448763 C7.15260597,0.395011634 5.76508148,0.153105677 4.31935546,0.153105677 C3.26034628,0.153105677 2.23237791,0.282933612 1.24941872,0.524332428 C0.784841173,0.990394427 0.381310561,1.50209906 0.0282212755,2.03485002 C0.0895268878,2.05336064 0.14488301,2.07821052 0.195841684,2.10737109" id="Fill-16" fill="#C48A2B" mask="url(#mask-6)"></path>
                    </g>
                    <path d="M5.96798495,20.6660968 C5.84925383,20.6321184 5.73078138,20.5776008 5.61929311,20.5022905 C5.53962168,20.44828 5.47210791,20.3856482 5.41106097,20.3199735 C4.08561811,20.7512964 3.30261352,20.9300634 3.29821607,20.9310777 C4.4006824,22.1132219 5.73517883,23.0831278 7.23031148,23.7746137 C7.1891824,23.7383532 6.54560281,23.1376454 5.96798495,20.6660968" id="Fill-19" fill="#C48A2B"></path>
                    <g id="Group-23" stroke-width="1" fill="none" transform="translate(6.208163, 16.075285)">
                        <mask id="mask-8" fill="white">
                            <use xlink:href="#path-7"></use>
                        </mask>
                        <g id="Clip-22"></g>
                        <path d="M8.66232781,0.538659143 C8.49160332,0.896446674 8.09945434,1.14722759 7.64237832,1.14722759 C7.38370485,1.14722759 7.14882934,1.06405657 6.9599977,0.929664368 C4.54864362,2.20537597 2.37682117,3.11239652 0.687683418,3.73060063 C0.772528316,3.9519674 0.764768112,4.18220913 0.638276786,4.36173682 C0.543860969,4.4953683 0.39848648,4.57853932 0.230607398,4.61302487 C0.814174745,6.90935646 1.52294005,7.91146583 1.53070026,7.92211578 C3.02583291,8.53524848 4.66659872,8.87503253 6.38884668,8.87503253 C12.0742309,8.87503253 16.8783145,5.18178279 18.4448411,0.109618391 C18.417939,0.116211216 14.5541334,1.05061735 8.66232781,0.538659143" id="Fill-21" fill="#C48A2B" mask="url(#mask-8)"></path>
                    </g>
                    <path d="M5.24703612,19.3541754 C5.34248663,19.2187689 5.48967184,19.1361051 5.65962031,19.1018731 C5.48605041,18.0528532 5.33317439,16.7746059 5.22375551,15.2268135 C5.01190194,15.129189 4.8163448,14.9663969 4.67640245,14.7419873 C4.55715398,14.5507954 4.49558969,14.3443893 4.48420806,14.1458438 C1.53119173,12.8635394 0.0833963265,11.57591 0.0489927551,11.5454816 C0.0189866327,11.893887 0.000103469388,12.2458424 0.000103469388,12.601855 C0.000103469388,15.6807041 1.1522351,18.4940653 3.0534851,20.6567654 C3.08168051,20.6499191 3.89701929,20.4587271 5.21185653,20.0185293 C5.11278459,19.7870197 5.11433663,19.5425781 5.24703612,19.3541754" id="Fill-24" fill="#C48A2B"></path>
                    <path d="M6.78443602,2.78075207 C5.71792531,2.63038495 5.12401102,2.6699419 5.11133602,2.67070261 C3.79210133,3.62818363 2.66945847,4.83137416 1.81583602,6.21231738 C1.82437224,6.20420313 3.68423449,4.455076 6.74615235,2.96154761 C6.74692837,2.90145148 6.76167276,2.84084821 6.78443602,2.78075207" id="Fill-26" fill="#C48A2B"></path>
                </g>
            </g>
        </g>
    </g>
</svg>