<?xml version="1.0" encoding="UTF-8"?>
<svg width="31px" height="12px" viewBox="0 0 31 12" version="1.1" xmlns="http://www.w3.org/2000/svg" xmlns:xlink="http://www.w3.org/1999/xlink">
    <!-- Generator: Sketch 55.2 (78181) - https://sketchapp.com -->
    <title>bank-ab</title>
    <desc>Created with Sketch.</desc>
    <defs>
        <rect id="path-1" x="0" y="0" width="36" height="36"></rect>
        <polygon id="path-3" points="30.7740444 0.000133333333 30.7740444 11.9994 3.44444444e-05 11.9994 3.44444444e-05 0.000133333333"></polygon>
    </defs>
    <g id="Page-1" stroke="none" stroke-width="1" fill="none" fill-rule="evenodd">
        <g id="bank-ab" transform="translate(-3.000000, -12.000000)">
            <mask id="mask-2" fill="white">
                <use xlink:href="#path-1"></use>
            </mask>
            <g id="Mask"></g>
            <g id="ab" mask="url(#mask-2)">
                <g transform="translate(3.000000, 12.000000)" id="Page-1">
                    <g>
                        <mask id="mask-4" fill="white">
                            <use xlink:href="#path-3"></use>
                        </mask>
                        <g id="Clip-2"></g>
                        <path d="M25.76999,4.77746667 L20.2606011,4.77746667 L19.1673344,2.76513333 L25.76999,2.76513333 C26.3417678,2.76513333 26.8098678,3.2178 26.8098678,3.77113333 C26.8098678,4.3248 26.3417678,4.77746667 25.76999,4.77746667 M28.6977678,5.8878 C28.6977678,5.8878 30.4906011,5.67946667 30.2753233,3.2278 C30.3232011,0.2208 28.2675567,0.000133333333 28.2675567,0.000133333333 L14.2614122,0.000133333333 L18.0379011,7.1138 L26.2122567,7.1598 C26.2122567,7.1598 27.2159678,7.1598 27.2159678,8.08513333 C27.2159678,9.01013333 26.3555456,9.1028 26.3555456,9.1028 L17.27289,9.1028 L12.3015233,0.000133333333 L6.51726778,0.000133333333 L3.44444444e-05,11.9994667 L4.03175667,11.9994667 C4.03175667,11.9994667 4.53361222,11.0458 4.91594556,10.3518 C5.29827889,9.65813333 5.84801222,9.68113333 5.84801222,9.68113333 L11.9429567,9.65813333 L10.5569122,7.06713333 L6.70843444,7.06713333 L8.97901222,2.9268 C9.45710111,2.27946667 9.86354556,2.9038 9.86354556,2.9038 L14.7395011,11.9994667 L28.3633122,11.8784667 C28.3633122,11.8784667 30.8967011,11.8784667 30.7534122,9.03346667 C31.0162233,5.95713333 28.6977678,5.8878 28.6977678,5.8878" id="Fill-1" fill="#17959C" mask="url(#mask-4)"></path>
                    </g>
                </g>
            </g>
        </g>
    </g>
</svg>