<?xml version="1.0" encoding="UTF-8"?>
<svg width="25px" height="30px" viewBox="0 0 25 30" version="1.1" xmlns="http://www.w3.org/2000/svg" xmlns:xlink="http://www.w3.org/1999/xlink">
    <!-- Generator: Sketch 55.2 (78181) - https://sketchapp.com -->
    <title>bank-tmcp</title>
    <desc>Created with Sketch.</desc>
    <defs>
        <rect id="path-1" x="0" y="0" width="36" height="36"></rect>
        <polygon id="path-3" points="24.9599794 0.0285254237 0 0.0285254237 0 24.6621102 24.9599794 24.6621102 24.9599794 0.0285254237"></polygon>
    </defs>
    <g id="Page-1" stroke="none" stroke-width="1" fill="none" fill-rule="evenodd">
        <g id="bank-tmcp" transform="translate(-6.000000, -3.000000)">
            <mask id="mask-2" fill="white">
                <use xlink:href="#path-1"></use>
            </mask>
            <g id="Mask"></g>
            <g id="scb" mask="url(#mask-2)">
                <g transform="translate(6.000000, 3.000000)" id="Page-1">
                    <g>
                        <path d="M5.73202062,15.2840085 L5.73202062,14.9637203 L6.26124742,14.9637203 L5.73202062,14.2525678 L5.73202062,13.8020085 L6.14078351,13.8020085 L7.6787732,15.7226186 L6.83789691,15.7226186 L6.50114433,15.2840085 L5.73202062,15.2840085 Z M8.0994433,15.7226186 L8.0994433,13.8020085 L8.84475258,13.8020085 L10.4068144,15.0821949 L10.4068144,13.8020085 L11.1282062,13.8020085 L11.1282062,15.7226186 L10.359134,15.7226186 L8.80851546,14.4660254 L8.80851546,15.7226186 L8.0994433,15.7226186 Z M11.9573299,15.7226186 L11.9573299,13.8020085 L12.7264536,13.8020085 L12.7264536,14.6556864 L14.2885155,13.8020085 L15.321866,13.8020085 L13.8921753,14.5490593 L15.4062474,15.7226186 L14.4084124,15.7226186 L13.3509381,14.8217034 L12.7264536,15.1416356 L12.7264536,15.7226186 L11.9573299,15.7226186 Z M1.88640206,13.8020085 L1.8986701,13.8020085 C2.19897938,13.8020085 2.42738144,13.8139576 2.58346392,13.8257542 C2.72769072,13.8374492 2.8601134,13.8612966 2.97990722,13.8966864 C3.08815464,13.944178 3.1965567,13.9918729 3.26841237,14.0625508 C3.35258763,14.1219915 3.38846392,14.2052288 3.38846392,14.2881102 C3.38846392,14.3710424 3.34042268,14.4540763 3.24470103,14.5369068 C3.14856701,14.6080424 3.01624742,14.6672288 2.84825773,14.7029746 C3.08815464,14.7384153 3.2565567,14.7978559 3.38846392,14.8809915 C3.5087732,14.9637203 3.58068041,15.0586525 3.58068041,15.1652288 C3.58068041,15.2482627 3.53315464,15.3431441 3.44897938,15.426178 C3.37660825,15.4970593 3.2565567,15.5684492 3.12459794,15.615839 C2.97990722,15.6632288 2.8115567,15.6983644 2.60727835,15.7105169 C2.49928866,15.7105169 2.25903093,15.7226186 1.88640206,15.7226186 L1.88640206,15.4021271 C2.15078351,15.4021271 2.31903093,15.3905339 2.39140206,15.3905339 C2.49928866,15.3783814 2.59542268,15.3550424 2.6673299,15.3075 C2.73964948,15.2720085 2.7758866,15.2127712 2.7758866,15.1416356 C2.7758866,15.0940932 2.75196907,15.0467542 2.69171134,14.9994661 C2.63165979,14.9637203 2.55934021,14.9282288 2.4515567,14.9164322 C2.35506186,14.8925847 2.17516495,14.8925847 1.88640206,14.8809915 L1.88640206,14.5605 L2.21083505,14.5605 C2.34320619,14.5490593 2.4515567,14.5252119 2.52356701,14.4896186 C2.59542268,14.4540763 2.63165979,14.4063305 2.63165979,14.3353983 C2.63165979,14.2759576 2.60727835,14.2287712 2.53537113,14.1931271 C2.47557732,14.1577373 2.37918557,14.1341441 2.24727835,14.1341441 C2.19897938,14.1219915 2.07887629,14.1219915 1.88640206,14.1219915 L1.88640206,13.8020085 Z M5.73202062,13.8020085 L5.73202062,14.2525678 L5.21557732,14.9637203 L5.73202062,14.9637203 L5.73202062,15.2840085 L4.97521649,15.2840085 L4.66217526,15.7226186 L3.83346392,15.7226186 L5.32351546,13.8020085 L5.73202062,13.8020085 Z M0.372278351,13.8020085 L1.88640206,13.8020085 L1.88640206,14.1219915 L1.58593814,14.1219915 L1.14140206,14.1219915 L1.14140206,14.5605 L1.64645361,14.5605 L1.88640206,14.5605 L1.88640206,14.8809915 L1.76629897,14.8809915 L1.14140206,14.8809915 L1.14140206,15.4021271 L1.86258763,15.4021271 L1.88640206,15.4021271 L1.88640206,15.7226186 L1.67016495,15.7226186 L0.372278351,15.7226186 L0.372278351,13.8020085 Z" id="Fill-1" fill="#0066B2"></path>
                        <g id="Group-5" transform="translate(0.000000, 0.022322)">
                            <mask id="mask-4" fill="white">
                                <use xlink:href="#path-3"></use>
                            </mask>
                            <g id="Clip-4"></g>
                            <path d="M12.4857526,0.0285 C10.5871959,0.0285 8.77235052,0.455415254 7.16224742,1.20211017 L17.7980206,1.20211017 C16.1991546,0.455415254 14.3847732,0.0285 12.4857526,0.0285 L12.4857526,0.0285 Z M18.4465773,14.8702627 L18.4465773,12.9380085 L9.19317526,12.9380085 L0.0119896907,12.9380085 C-2.06185567e-05,12.7482966 -2.06185567e-05,12.5469407 -2.06185567e-05,12.3452797 C-2.06185567e-05,12.1555169 -2.06185567e-05,11.9659068 0.0119896907,11.7643983 L24.9481753,11.7643983 C24.9599794,11.9659068 24.9599794,12.1555169 24.9599794,12.3452797 C24.9599794,19.1497373 19.3718351,24.6621102 12.4857526,24.6621102 C7.05369072,24.6621102 2.42740206,21.2478559 0.708742268,16.4589915 L8.14745361,16.4589915 L12.5099278,20.7620593 L18.4465773,14.8702627 Z M5.15513402,2.3755678 C4.66214433,2.73144915 4.18173196,3.1344661 3.74930928,3.54938136 L21.2103402,3.54938136 C20.7658557,3.1344661 20.2969897,2.73144915 19.804567,2.3755678 L5.15513402,2.3755678 Z M2.67961856,4.72273729 C2.37920619,5.10226271 2.10291753,5.49338136 1.85049485,5.89655085 L10.5271443,5.89655085 L11.7166289,4.72273729 L2.67961856,4.72273729 Z M14.4449278,5.89655085 L23.1092062,5.89655085 C22.8566804,5.49338136 22.5805464,5.10226271 22.2802371,4.72273729 L13.2550825,4.72273729 L14.4449278,5.89655085 Z M1.20178351,7.07016102 C1.0211134,7.4494322 0.852969072,7.8405 0.708742268,8.24351695 L8.1597732,8.24351695 L9.34925773,7.07016102 L1.20178351,7.07016102 Z M16.8240515,8.24351695 L24.2511649,8.24351695 C24.1068866,7.8405 23.9380722,7.4494322 23.7582784,7.07016102 L15.6463196,7.07016102 L16.8240515,8.24351695 Z M0.360494845,9.41712712 C0.264154639,9.80829661 0.179876289,10.1995678 0.132041237,10.5907373 L5.79224742,10.5907373 L6.96997938,9.41712712 L0.360494845,9.41712712 Z" id="Fill-3" fill="#EC1D24" mask="url(#mask-4)"></path>
                        </g>
                        <path d="M17.400933,29.9122831 L17.400933,29.3314525 C17.7491804,29.3314525 17.965933,29.3196559 18.0618608,29.3075034 C18.2180464,29.2841136 18.3384072,29.236622 18.4346959,29.1651814 C18.5309845,29.0941475 18.5789742,28.9994186 18.5789742,28.8689949 C18.5789742,28.7738085 18.5428918,28.6794356 18.4703144,28.6080966 C18.3986649,28.5371644 18.2904691,28.4897237 18.1458814,28.4543339 C18.0258299,28.4183339 17.7733557,28.4069949 17.400933,28.4069949 L17.400933,27.8255542 C17.6172732,27.8255542 17.7615515,27.8255542 17.8336649,27.8136559 C18.0019639,27.8022153 18.1458814,27.7663678 18.2421701,27.695639 C18.3384072,27.6240458 18.3867577,27.5412153 18.3867577,27.4225373 C18.3867577,27.3162153 18.3499021,27.2331305 18.2666546,27.1617407 C18.1700567,27.1027576 18.0494897,27.0553678 17.8819639,27.0432661 C17.8098505,27.0432661 17.6533041,27.031622 17.400933,27.031622 L17.400933,26.4622322 L17.413201,26.4622322 C17.8216546,26.4622322 18.122067,26.4745373 18.3142835,26.4863339 C18.5068093,26.5096729 18.6871701,26.5574186 18.843201,26.6283508 C18.9993866,26.7116898 19.1316546,26.8060627 19.2271701,26.9245881 C19.3357268,27.0432661 19.3841804,27.1738932 19.3841804,27.3278593 C19.3841804,27.4822322 19.3238711,27.6361983 19.1914485,27.7663678 C19.0714485,27.9088932 18.8912423,28.0037237 18.6752113,28.0748085 C18.9874794,28.1340458 19.2156237,28.2404695 19.3841804,28.3831983 C19.5525825,28.5371644 19.6365515,28.7032831 19.6365515,28.9044356 C19.6365515,29.0586051 19.5762423,29.2127746 19.4681495,29.3671983 C19.3718093,29.5090119 19.2156237,29.6276898 19.0354175,29.7224695 C18.8555206,29.8053508 18.6263969,29.864639 18.3499021,29.888639 C18.2060361,29.9003847 17.8939227,29.9003847 17.400933,29.9122831 L17.400933,29.9122831 Z M5.32351031,28.7860119 L6.32093299,28.7150797 C6.3807268,28.9520288 6.50113918,29.1180458 6.68144845,29.2247237 C6.86196392,29.3314525 7.11418041,29.3788932 7.42634536,29.3788932 C7.75088144,29.3788932 8.00325258,29.3314525 8.17129381,29.236622 C8.33964433,29.1414356 8.41201546,29.0347576 8.41201546,28.9044356 C8.41201546,28.8217576 8.38820103,28.7503169 8.31598454,28.7032831 C8.2436134,28.6436898 8.12356186,28.5845034 7.94330412,28.548961 C7.82325258,28.5133169 7.54686082,28.4660288 7.12603608,28.394639 C6.57345876,28.2999102 6.18887113,28.1931814 5.97242784,28.0510627 C5.66046907,27.8617576 5.5036134,27.6361983 5.5036134,27.3635542 C5.5036134,27.1858932 5.57598454,27.0196729 5.73201546,26.8655034 C5.87624227,26.7116898 6.08031443,26.6047576 6.35691237,26.5218254 C6.63387113,26.4389949 6.96995361,26.4032492 7.35443814,26.4032492 C7.99139691,26.4032492 8.47201546,26.4980288 8.78469588,26.6878424 C9.10923196,26.8775034 9.27758247,27.1260966 9.28933505,27.4465373 L8.26773711,27.4701305 C8.23175773,27.2923169 8.13562371,27.1738932 7.99139691,27.0906051 C7.8471701,27.0196729 7.63103608,26.9723847 7.34258247,26.9723847 C7.0421701,26.9723847 6.81371649,27.0196729 6.64536598,27.1027576 C6.53758247,27.1501475 6.48928351,27.2211814 6.48928351,27.3162153 C6.48928351,27.3991983 6.53758247,27.4701305 6.63387113,27.5293169 C6.76567526,27.6007068 7.07804639,27.6717915 7.57057216,27.7544186 C8.07526289,27.8374525 8.43603608,27.9207915 8.67629381,28.0037237 C8.91701546,28.0865542 9.09691237,28.2051814 9.24113918,28.3593508 C9.37356186,28.5014186 9.4336134,28.6913339 9.4336134,28.9044356 C9.4336134,29.1059441 9.36160309,29.2841136 9.19320103,29.4618254 C9.03686082,29.6276898 8.80851031,29.7580627 8.52026289,29.8408932 C8.21985052,29.9239271 7.8471701,29.9714695 7.41495361,29.9714695 C6.77773711,29.9714695 6.2850567,29.864639 5.93629381,29.6632322 C5.59974742,29.4618254 5.39546907,29.1770288 5.32351031,28.7860119 L5.32351031,28.7860119 Z M17.400933,26.4622322 L17.400933,27.031622 L17.0042835,27.031622 L16.4158299,27.031622 L16.4158299,27.8255542 L17.0886134,27.8255542 L17.400933,27.8255542 L17.400933,28.4069949 L17.2447474,28.4069949 L16.4158299,28.4069949 L16.4158299,29.3314525 L17.364799,29.3314525 L17.400933,29.3314525 L17.400933,29.9122831 L17.1127887,29.9122831 L15.4062423,29.9122831 L15.4062423,26.4622322 L17.400933,26.4622322 Z M13.5312423,28.6436898 L14.5285103,28.8570966 C14.3727887,29.2247237 14.1200052,29.5090119 13.7722216,29.6869271 C13.4111907,29.8767407 12.9666546,29.9714695 12.4261907,29.9714695 C11.7527887,29.9714695 11.2002113,29.8053508 10.7674278,29.4975712 C10.3349536,29.1891814 10.1184072,28.7503169 10.1184072,28.2170797 C10.1184072,27.6361983 10.3349536,27.1974864 10.7674278,26.8775034 C11.212067,26.5574186 11.7771186,26.4032492 12.4857784,26.4032492 C13.1108299,26.4032492 13.6037165,26.5218254 14.000366,26.7708763 C14.228201,26.9245881 14.3966546,27.1379949 14.517067,27.4108932 L13.5074278,27.576961 C13.4472732,27.3991983 13.3148505,27.2566729 13.1231495,27.1501475 C12.9422732,27.0432661 12.7023247,26.995978 12.4377887,26.995978 C12.0651082,26.995978 11.7527887,27.0906051 11.5246959,27.268622 C11.2839227,27.4581814 11.1763969,27.7544186 11.1763969,28.1579949 C11.1763969,28.5961475 11.2839227,28.9044356 11.5123763,29.0941475 C11.7527887,29.2841136 12.0411907,29.3671983 12.4138711,29.3671983 C12.6899536,29.3671983 12.9189227,29.3075034 13.1108299,29.1891814 C13.3148505,29.0826559 13.4472732,28.8928424 13.5312423,28.6436898 L13.5312423,28.6436898 Z" id="Fill-6" fill="#0066B2"></path>
                    </g>
                </g>
            </g>
        </g>
    </g>
</svg>