<?xml version="1.0" encoding="UTF-8"?>
<svg width="26px" height="26px" viewBox="0 0 26 26" version="1.1" xmlns="http://www.w3.org/2000/svg" xmlns:xlink="http://www.w3.org/1999/xlink">
    <!-- Generator: Sketch 55.2 (78181) - https://sketchapp.com -->
    <title>bank-sacom</title>
    <desc>Created with Sketch.</desc>
    <defs>
        <rect id="path-1" x="0" y="0" width="36" height="36"></rect>
    </defs>
    <g id="Page-1" stroke="none" stroke-width="1" fill="none" fill-rule="evenodd">
        <g id="bank-sacom" transform="translate(-5.000000, -5.000000)">
            <mask id="mask-2" fill="white">
                <use xlink:href="#path-1"></use>
            </mask>
            <g id="Mask"></g>
            <g id="ico_sacom" mask="url(#mask-2)" fill="#008FD6">
                <g transform="translate(5.000000, 5.000000)" id="Fill-4">
                    <path d="M14.135838,0.469382185 L25.5303623,11.8577059 L25.5317705,11.8588787 L25.5317705,11.8605208 C25.8436888,12.1732076 26,12.5832427 26,12.9928085 C26,13.4016707 25.8441582,13.8114711 25.5327093,14.1239234 L25.5327093,14.1255654 L25.5303623,14.1279112 L14.135838,25.5164694 L14.1346645,25.5176423 L14.1330216,25.5176423 C13.8201645,25.8296255 13.4094368,25.9858516 13.0001174,25.9858516 C12.5910326,25.9858516 12.181009,25.8300946 11.8683866,25.5188152 L11.8667437,25.5188152 L11.8643967,25.5164694 L0.469637747,14.1279112 L0.46846424,14.1267383 L0.46846424,14.1250963 C0.156311214,13.812644 0,13.402609 0,12.9928085 C0,12.584181 0.155841811,12.1741459 0.467290732,11.8619282 L0.467290732,11.8600516 L0.469637747,11.8577059 L11.8643967,0.469382185 L11.8655702,0.468209316 L11.8672131,0.468209316 C12.1798355,0.156226155 12.5900938,-2.09610107e-13 13.0001174,-2.09610107e-13 C13.4092021,-2.09610107e-13 13.8187563,0.155757007 14.1316134,0.467036447 L14.1332563,0.467036447 L14.135838,0.469382185 Z M24.943139,12.4448441 L13.5486148,1.05628585 L13.5460331,1.05394011 L13.5469719,1.05300181 C13.3972323,0.904751169 13.1991442,0.829922125 13.0001174,0.829922125 C12.8008558,0.829922125 12.6020636,0.904985742 12.4520893,1.05417468 L12.4527934,1.05511298 L12.4516199,1.05628585 L1.05686096,12.4448441 L1.05451394,12.4471899 L1.05357514,12.4462516 C0.905243774,12.5959096 0.830608689,12.7938899 0.830608689,12.9928085 C0.830608689,13.1919617 0.905713177,13.3906457 1.05498335,13.5405384 L1.05568745,13.5398346 L1.05686096,13.5410075 L12.4516199,24.9295658 L12.4539669,24.9319115 L12.4532628,24.9328498 C12.6030024,25.081335 12.8010905,25.1556949 13.0001174,25.1556949 C13.1993789,25.1556949 13.3981711,25.0806313 13.5481454,24.9314424 L13.5474413,24.9307386 L13.5486148,24.9295658 L24.943139,13.5410075 L24.9457208,13.5386618 L24.9464249,13.5393655 C25.0949909,13.389942 25.169626,13.1917271 25.169626,12.9928085 C25.169626,12.7936554 25.0945215,12.5949714 24.9452514,12.4450787 L24.9443126,12.4457824 L24.943139,12.4448441 Z M12.7905289,16.4487844 C9.98326398,16.3214108 7.65126964,14.3711642 6.9509203,11.754728 L8.70625299,11.754728 C9.1545329,12.9468321 10.0764405,13.9071772 11.2426723,14.407054 L11.2426723,11.1673552 L8.94400563,11.1673552 L8.52858394,11.1673552 L6.82371208,11.1673552 C6.7662102,10.8244083 6.7354643,10.4713747 6.7354643,10.1120076 C6.7354643,6.70716883 9.42138853,3.9277038 12.7905289,3.77476168 L12.7905289,4.78554021 L12.7905289,5.44844579 L12.7905289,9.07401853 L11.3090929,9.07401853 L11.3090929,5.78928153 C9.77813485,6.41770475 8.65438395,7.83429596 8.44409139,9.53354861 L12.8008558,9.53354861 L12.8008558,11.1673552 L12.7905289,14.7743966 L12.7905289,15.4816366 L12.7905289,16.4487844 Z M13.3754051,3.77476168 C16.3859215,3.91151821 18.8505222,6.14512999 19.3410484,9.04868456 L17.6361765,9.04868456 C17.2909306,7.5671164 16.2399372,6.35577727 14.8568411,5.78787408 L14.8568411,14.4337954 C16.2270286,13.8712874 17.2705116,12.6780105 17.6258497,11.2152082 L15.5424042,11.2152082 L15.5424042,9.5846857 L17.7279448,9.5846857 L18.891595,9.5846857 L19.4079383,9.5846857 C19.4224898,9.75850489 19.4304697,9.93466982 19.4304697,10.1120076 C19.4304697,13.5168464 16.7445454,16.2958423 13.3754051,16.4487844 L13.3754051,15.0476751 L13.3754051,14.7743966 L13.3754051,5.44844579 L13.3754051,4.78554021 L13.3754051,3.77476168 Z M6.55169301,11.796013 L6.64416541,11.8706074 C7.38723043,14.5926019 9.81216657,16.6218999 12.7334964,16.7724963 L12.7905289,16.8189419 L12.7905289,24.4090465 C11.9838598,23.6649784 11.1771906,22.9209103 10.3702868,22.1768422 C10.5932532,21.2000768 10.8162197,20.2233115 11.0391861,19.2467808 C11.361666,17.7356563 10.8295977,17.057738 9.59013893,17.0701704 C7.83950027,17.1290484 6.49653815,16.9005736 6.60755197,15.6467766 C6.58877585,14.3631887 6.57023443,13.0796008 6.55169301,11.796013 L6.55169301,11.796013 Z M19.6210473,11.8190012 L19.5285749,11.8933611 C18.7857446,14.6153555 16.3605738,16.6446535 13.4394786,16.7952499 L13.3822114,16.8020526 L13.3822114,24.4320347 C14.1888806,23.687732 14.9957844,22.9436639 15.8024535,22.1995958 C15.5797218,21.2228305 15.3567553,20.2460652 15.1335542,19.2695344 C14.8110743,17.7586445 15.3431427,17.0804917 16.5828361,17.0929241 C18.3334748,17.1518021 19.6762022,16.9233272 19.565423,15.6697648 C19.5841992,14.3859424 19.6025059,13.1023545 19.6210473,11.8190012 L19.6210473,11.8190012 Z"></path>
                </g>
            </g>
        </g>
    </g>
</svg>