<?xml version="1.0" encoding="UTF-8"?>
<svg width="25px" height="25px" viewBox="0 0 25 25" version="1.1" xmlns="http://www.w3.org/2000/svg" xmlns:xlink="http://www.w3.org/1999/xlink">
    <!-- Generator: Sketch 55.2 (78181) - https://sketchapp.com -->
    <title>bank-exim</title>
    <desc>Created with Sketch.</desc>
    <defs>
        <rect id="path-1" x="0" y="0" width="36" height="36"></rect>
    </defs>
    <g id="Page-1" stroke="none" stroke-width="1" fill="none" fill-rule="evenodd">
        <g id="bank-exim" transform="translate(-6.000000, -6.000000)">
            <mask id="mask-2" fill="white">
                <use xlink:href="#path-1"></use>
            </mask>
            <g id="Mask"></g>
            <g id="ico_exim" mask="url(#mask-2)" fill="#00A1DF">
                <g transform="translate(6.000000, 6.000000)" id="EXIM">
                    <path d="M13.1795033,0.0410546904 L12.5041518,0.0138386597 L11.9879507,0.0138386597 L11.7203934,-1.39051947e-15 L11.7203934,23.4671378 C6.73690814,23.1184036 2.66957597,19.4566942 1.71421191,14.6671341 C1.70821493,14.6380729 1.71098277,14.6007085 1.71974757,14.561499 C1.70683101,14.4646284 1.69575968,14.3636062 1.69575968,14.2621227 C1.69575968,13.0747657 2.63728457,12.1088272 3.81453666,12.0626984 L3.81499797,12.0613145 L3.81499797,12.0548564 L10.9463225,12.0548564 L10.9463225,0.119012473 C4.77774292,0.882445199 0,6.13836815 0,12.5142999 C0,19.1859178 5.23351294,24.6282013 11.8195741,24.9833936 L12.5202974,25 L13.1795033,25 L13.1795033,24.9926194 L13.2330147,24.9963097 L13.2330147,1.54439442 C18.1966638,1.86960292 22.2598443,5.48333825 23.2608776,10.2290759 C23.2613389,10.2336888 23.2604163,10.2424533 23.2604163,10.2479888 C23.3005499,10.414514 23.3245378,10.5893424 23.3245378,10.7697063 C23.3245378,11.9625987 22.3724028,12.9354565 21.1822342,12.9686693 L21.1822342,12.9695919 L21.1707016,12.9695919 C21.1531719,12.9695919 21.1379489,12.9709757 21.118574,12.9709757 C21.1024283,12.9709757 21.0858213,12.9695919 21.068753,12.9695919 L14.0527549,12.9695919 L14.0527549,24.9054358 C20.2222571,24.1392354 25,18.8860802 25,12.5142999 C25,5.83853052 19.7655645,0.393940512 13.1795033,0.0410546904"></path>
                </g>
            </g>
        </g>
    </g>
</svg>