<?xml version="1.0" encoding="UTF-8"?>
<svg width="28px" height="26px" viewBox="0 0 28 26" version="1.1" xmlns="http://www.w3.org/2000/svg" xmlns:xlink="http://www.w3.org/1999/xlink">
    <!-- Generator: Sketch 55.2 (78181) - https://sketchapp.com -->
    <title>bank-anz</title>
    <desc>Created with Sketch.</desc>
    <defs>
        <rect id="path-1" x="0" y="0" width="36" height="36"></rect>
    </defs>
    <g id="Page-1" stroke="none" stroke-width="1" fill="none" fill-rule="evenodd">
        <g id="bank-anz" transform="translate(-4.000000, -5.000000)">
            <mask id="mask-2" fill="white">
                <use xlink:href="#path-1"></use>
            </mask>
            <g id="Mask"></g>
            <path d="M30.9208749,20.2087352 C28.4272259,18.133065 24.541997,18.690064 22.2405907,21.4539539 C19.9391844,24.2173849 20.0951808,28.1402365 22.5874533,30.2163656 C23.0485605,30.5999333 23.5830777,30.4815596 24.136865,29.8158218 C24.69157,29.1500841 30.4313214,22.2568767 30.7483612,21.8765207 C31.2824196,21.2346412 31.381982,20.5927618 30.9208749,20.2087352 M4.29457673,20.2087352 C3.83255198,20.5927618 3.93211442,21.2346412 4.46663163,21.8765207 C4.78321264,22.2568767 10.522964,29.1500841 11.077669,29.8158218 C11.6319151,30.4815596 12.1664324,30.5999333 12.6275395,30.2163656 C15.1202708,28.1402365 15.2748908,24.2173849 12.9744022,21.4539539 C10.672537,18.690064 6.78639045,18.133065 4.29457673,20.2087352 M24.9186825,12.2955864 C24.9186825,8.26674897 21.6523923,5 17.623096,5 C13.593341,5 10.3270508,8.26674897 10.3270508,12.2955864 C10.3270508,15.3476109 12.182032,18.0105619 14.8615003,19.0511499 C15.8135374,19.4204944 16.2865736,19.2016406 16.2865736,18.4156938 C16.2865736,17.3907054 14.9697801,16.8685762 14.9697801,15.2503425 C14.9697801,13.7848936 16.1585648,12.5974854 17.623096,12.5974854 C19.0880861,12.5974854 20.2754943,13.7848936 20.2754943,15.2503425 C20.2754943,16.5469482 18.9490658,17.4911855 18.9490658,18.4156938 C18.9490658,19.2016406 19.422102,19.4204944 20.3750568,19.0511499 L20.4938894,19.0048098 C23.0958182,17.889894 24.9186825,15.3058589 24.9186825,12.2955864" id="Page-1" fill="#087DBA" mask="url(#mask-2)"></path>
        </g>
    </g>
</svg>