<?xml version="1.0" encoding="UTF-8"?>
<svg width="30px" height="25px" viewBox="0 0 30 25" version="1.1" xmlns="http://www.w3.org/2000/svg" xmlns:xlink="http://www.w3.org/1999/xlink">
    <!-- Generator: Sketch 55.2 (78181) - https://sketchapp.com -->
    <title>bank-vp</title>
    <desc>Created with Sketch.</desc>
    <defs>
        <rect id="path-1" x="0" y="0" width="36" height="36"></rect>
        <polygon id="path-3" points="6.24408197 0.232352941 0.0663958153 0.232352941 0.0663958153 16.6096569 6.24408197 16.6096569 6.24408197 0.232352941"></polygon>
    </defs>
    <g id="Page-1" stroke="none" stroke-width="1" fill="none" fill-rule="evenodd">
        <g id="bank-vp" transform="translate(-3.000000, -6.000000)">
            <mask id="mask-2" fill="white">
                <use xlink:href="#path-1"></use>
            </mask>
            <g id="Mask"></g>
            <g id="vp" mask="url(#mask-2)">
                <g transform="translate(3.000000, 6.000000)" id="Page-1">
                    <g>
                        <path d="M0,11.3728922 C0.370819672,11.4557353 0.746557377,11.4076961 1.11983607,11.4096569 C2.5495082,11.4160294 3.98016393,11.4385784 5.40885246,11.4013235 C6.14803279,11.3822059 6.80016393,11.5822059 7.42819672,11.9258333 C8.92967213,12.7464216 10.1336066,13.9287745 11.3168852,15.1312255 C12.2768852,16.1067157 13.2108197,17.1081863 14.1644262,18.090049 C14.3134426,18.2439706 14.392623,18.390049 14.3901639,18.6140686 C14.3670492,20.5562255 14.3508197,22.4993627 14.3508197,24.4420098 C14.3508197,24.8130882 14.2013115,24.7983824 13.9293443,24.7081863 C12.9481967,24.3831863 12.1460656,23.7738725 11.3832787,23.1111275 C9.76967213,21.7106373 8.33409836,20.1292647 6.84688525,18.6018137 C4.54622951,16.2380882 2.38278689,13.7444608 0,11.4591667 L0,11.3728922 Z" id="Fill-1" fill="#EC1E25"></path>
                        <g id="Group-5" transform="translate(15.245902, 0.257990)">
                            <mask id="mask-4" fill="white">
                                <use xlink:href="#path-3"></use>
                            </mask>
                            <g id="Clip-4"></g>
                            <path d="M6.24408197,0.232205882 C6.17227869,0.383186275 6.20670492,0.543970588 6.20621311,0.699852941 C6.2037541,2.95720588 6.18506557,5.21504902 6.21113115,7.47191176 C6.23129508,9.23759804 5.6932623,10.762598 4.46227869,12.0508333 C3.02080328,13.5591667 1.60342623,15.090049 0.176704918,16.6096569 C0.0109672131,16.5317157 0.081295082,16.3998529 0.0808032787,16.3023039 C0.0763770492,13.2111275 0.0832622951,10.1194608 0.0680163934,7.02828431 C0.0665409836,6.70328431 0.24752459,6.53416667 0.430967213,6.33857843 C2.33916393,4.30230392 4.24834426,2.2675 6.15752459,0.232205882 L6.24408197,0.232205882 Z" id="Fill-3" fill="#EC1E26" mask="url(#mask-4)"></path>
                        </g>
                        <path d="M29.7111148,11.4123529 C28.8863607,12.2579412 28.1235738,13.0197059 27.3834098,13.8020588 C24.7596393,16.5755882 22.1737377,19.384902 19.4565246,22.0682353 C18.6971803,22.8182353 17.902918,23.5304902 16.9999672,24.1089216 C16.635541,24.3422549 16.2583279,24.550098 15.8422623,24.6814706 C15.3671803,24.8314706 15.3534098,24.825098 15.3514426,24.3407843 C15.3465246,22.9736275 15.3420984,21.6064706 15.3376721,20.2393137 C15.3371803,20.0951961 15.3573443,19.9486275 15.3342295,19.8079412 C15.1640656,18.7961765 15.4970164,18.0402941 16.2657049,17.3157843 C17.7519344,15.9148039 19.0478361,14.3152941 20.650623,13.0295098 C21.0209508,12.732451 21.4109508,12.457451 21.8088197,12.1981373 C22.6463607,11.6530392 23.5365246,11.3510784 24.5752131,11.3951961 C26.1175082,11.4608824 27.6647213,11.4123529 29.2094754,11.4123529 L29.7111148,11.4123529 Z" id="Fill-6" fill="#EC1E25"></path>
                        <path d="M8.15222951,0.507647059 C8.84419672,1.23068627 9.47616393,1.8904902 10.1071475,2.55176471 C11.4197705,3.9277451 12.7299344,5.30568627 14.0450164,6.67921569 C14.1974754,6.83901961 14.318459,6.98509804 14.3179672,7.23264706 C14.3096066,10.385098 14.3120656,13.5370588 14.311082,16.6895098 C14.311082,16.7311765 14.3002623,16.7733333 14.283541,16.8983333 C13.7951803,16.3885294 13.3412459,15.9213725 12.8937049,15.4478431 C11.7846885,14.2757843 10.6555082,13.1243137 9.58288525,11.9184314 C8.64009836,10.8581373 8.15419672,9.62284314 8.13944262,8.22382353 C8.11239344,5.73411765 8.13157377,3.24392157 8.13157377,0.75372549 C8.13157377,0.702745098 8.13993443,0.651764706 8.15222951,0.507647059" id="Fill-8" fill="#EC1D25"></path>
                    </g>
                </g>
            </g>
        </g>
    </g>
</svg>