<?xml version="1.0" encoding="UTF-8"?>
<svg width="28px" height="28px" viewBox="0 0 28 28" version="1.1" xmlns="http://www.w3.org/2000/svg" xmlns:xlink="http://www.w3.org/1999/xlink">
    <!-- Generator: Sketch 55.2 (78181) - https://sketchapp.com -->
    <title>bank-agri</title>
    <desc>Created with Sketch.</desc>
    <defs>
        <rect id="path-1" x="0" y="0" width="36" height="36"></rect>
        <polygon id="path-3" points="0 27.6743209 0 0.133813953 27.7840744 0.133813953 27.7840744 27.6743209 2.67672056e-15 27.6743209"></polygon>
    </defs>
    <g id="Page-1" stroke="none" stroke-width="1" fill="none" fill-rule="evenodd">
        <g id="bank-agri" transform="translate(-4.000000, -4.000000)">
            <mask id="mask-2" fill="white">
                <use xlink:href="#path-1"></use>
            </mask>
            <g id="Mask"></g>
            <g id="agribank" mask="url(#mask-2)">
                <g transform="translate(4.000000, 4.000000)" id="Page-1">
                    <g>
                        <g id="Group-3" transform="translate(0.000000, 0.191865)">
                            <mask id="mask-4" fill="white">
                                <use xlink:href="#path-3"></use>
                            </mask>
                            <g id="Clip-2"></g>
                            <path d="M2.19402791,0.133716279 L25.5899814,0.133716279 C26.7900744,0.133716279 27.7840744,1.12771628 27.7840744,2.32455349 L27.7840744,25.4831581 C27.7840744,26.6832512 26.7900744,27.6743209 25.5899814,27.6743209 L2.19402791,27.6743209 C0.97667907,27.6743209 -6.51162791e-05,26.6832512 -6.51162791e-05,25.4831581 L-6.51162791e-05,2.32455349 C-6.51162791e-05,1.12771628 0.97667907,0.133716279 2.19402791,0.133716279" id="Fill-1" fill="#FFFFFF" mask="url(#mask-4)"></path>
                        </g>
                        <path d="M26.6458419,3.1962 C26.6458419,2.30768837 25.9041674,1.57968837 24.9814698,1.57968837 L19.5068186,1.57968837 L3.41951628,17.7431767 L3.41951628,22.8075953 C3.41951628,23.7048977 4.15565581,24.4325721 5.06142326,24.4325721 L10.5132837,24.4325721 L26.6458419,8.56601395 L26.6458419,3.1962 Z" id="Fill-4" fill="#992736"></path>
                        <path d="M5.06702326,1.57972093 C4.15572093,1.57972093 3.41925581,2.30739535 3.41925581,3.19623256 L3.41925581,16.7495349 L18.903907,1.57972093 L5.06702326,1.57972093 Z" id="Fill-6" fill="#005C3B"></path>
                        <path d="M7.13895814,19.6170605 L7.13895814,19.6170605 L8.03691163,19.6170605 L7.57816744,18.4794791 L7.13895814,19.6170605 Z M9.4916093,20.6139907 L9.4916093,20.7295721 L7.96593488,20.7295721 L7.96593488,20.6139907 C8.11016744,20.6139907 8.20653953,20.5996651 8.25993488,20.5794791 C8.30584186,20.5514791 8.3279814,20.5176186 8.3279814,20.4378512 C8.3279814,20.3756651 8.30584186,20.2682233 8.25993488,20.1350605 C8.23486512,20.0673395 8.20100465,19.9625023 8.12449302,19.7928744 L7.06016744,19.7928744 C6.99244651,19.9625023 6.93546977,20.0845953 6.90714419,20.2005023 C6.87035349,20.3164093 6.84170233,20.387386 6.84170233,20.4157116 C6.84170233,20.4834326 6.88174884,20.5319442 6.93253953,20.5599442 C6.98626047,20.5882698 7.08295814,20.6139907 7.22979535,20.6139907 L7.22979535,20.7295721 L6.27323721,20.7295721 L6.27323721,20.5996651 C6.39793488,20.5882698 6.4939814,20.5319442 6.55616744,20.4495721 C6.59002791,20.3929209 6.6636093,20.2626884 6.74305116,20.0673395 L7.7959814,17.4799442 L7.9148186,17.4799442 L8.96807442,19.9625023 C9.08691163,20.2203628 9.16602791,20.3929209 9.22267907,20.4661767 C9.29593488,20.5599442 9.37244651,20.6139907 9.47500465,20.6139907 L9.4916093,20.6139907 Z" id="Fill-8" fill="#FFFFFF"></path>
                        <path d="M17.9495953,1.93629767 C17.7034558,1.93629767 15.9856884,2.16876279 15.3289907,2.62685581 C14.7006186,3.11099535 14.4199674,3.26076279 14.0211302,4.80662326 C14.6888977,4.41885581 15.7672233,4.28308837 16.2741535,4.16750698 C16.7726186,4.03108837 17.5312233,3.6491814 17.7659674,2.82253023 C17.9782465,2.0040186 17.9495953,1.93629767 17.9495953,1.93629767" id="Fill-10" fill="#231F20"></path>
                        <path d="M17.8370419,2.08368837 C17.8370419,2.08368837 17.0185302,2.1286186 16.3846233,2.32103721 C15.7562512,2.50238605 14.615414,2.87615349 14.2670419,4.48680465 C15.065693,4.31164186 16.333507,4.02252558 16.4468093,4.02252558 C16.3165767,4.13289767 16.2742512,4.1674093 16.2742512,4.1674093 C16.2742512,4.1674093 17.1399721,3.97987442 17.593507,3.23006047 C17.7211349,3.06043256 17.8370419,2.62675814 17.8370419,2.62675814 L17.669693,2.7797814 C17.669693,2.7797814 17.847786,2.4542 17.8370419,2.08368837" id="Fill-12" fill="#A33629"></path>
                        <path d="M14.3859767,4.38499535 C14.3859767,4.38499535 14.6405814,3.17643721 15.9455116,2.60471628 C17.1967209,2.13490233 17.1573256,2.3523907 17.6411395,2.22476279 C17.5792791,2.56466977 17.3442093,3.46490233 16.7552326,3.73936744 C16.1665814,4.02229767 14.8079302,4.10434419 14.3859767,4.38499535" id="Fill-14" fill="#F4E207"></path>
                        <path d="M14.7796047,3.82763256 C14.5673256,3.90642326 13.0953721,4.69335349 12.6760233,5.35623721 C12.2628605,6.00121395 12.0616512,6.22521395 12.2488605,7.79028372 C12.7043488,7.20749302 13.6332326,6.72563256 14.0320698,6.43716744 C14.4426279,6.16530698 15.0032791,5.55679535 14.9267674,4.72167907 C14.8362558,3.87549302 14.7796047,3.82763256 14.7796047,3.82763256" id="Fill-16" fill="#231F20"></path>
                        <path d="M14.7344791,4.00823256 C14.7344791,4.00823256 14.0123395,4.31167442 13.5031302,4.6987907 C12.9991302,5.08427907 12.0959674,5.80576744 12.3645721,7.40827907 C12.9991302,6.9947907 14.0322,6.29316279 14.1425721,6.25604651 C14.0660605,6.40906977 14.0322,6.43706977 14.0322,6.43706977 C14.0322,6.43706977 14.7683395,5.98451163 14.9070372,5.14093023 C14.9519674,4.95665116 14.9268977,4.52362791 14.9268977,4.52362791 L14.8249907,4.71051163 C14.8249907,4.71051163 14.8757814,4.35106977 14.7344791,4.00823256" id="Fill-18" fill="#A33629"></path>
                        <path d="M12.4158186,7.28091163 C12.4158186,7.28091163 12.2201442,6.06909767 13.2082837,5.11253953 C14.1739581,4.26602791 14.2159581,4.48123721 14.5981907,4.18105116 C14.6720977,4.53463256 14.7681442,5.43812093 14.3347953,5.88774884 C13.8988419,6.34974884 12.7241442,6.87328372 12.4158186,7.28091163" id="Fill-20" fill="#F4E207"></path>
                        <path d="M12.9479163,6.19669302 C12.9479163,6.19669302 12.5347535,6.84785581 12.330614,7.45050698 C12.1414512,8.0450186 11.8048,9.13766977 12.9938233,10.4146 C13.2822884,9.69799535 13.7521023,8.56594884 13.8198233,8.47543721 C13.8364279,8.6453907 13.8364279,8.69064651 13.8364279,8.69064651 C13.8364279,8.69064651 14.1740558,7.91478605 13.7970326,7.10506512 C13.7293116,6.91004186 13.4265209,6.55613488 13.4265209,6.55613488 L13.4603814,6.77687907 C13.4603814,6.77687907 13.2822884,6.43176279 12.9479163,6.19669302" id="Fill-22" fill="#A33629"></path>
                        <path d="M26.6458419,22.807693 L26.6458419,9.08085581 L11.2155628,24.4323442 L24.9814698,24.4323442 C25.9041674,24.4323442 26.6458419,23.7049953 26.6458419,22.807693" id="Fill-24" fill="#005C3B"></path>
                        <path d="M12.9590186,10.2674047 C12.9590186,10.2674047 12.0672512,9.31019535 12.3306465,7.97693953 C12.6477628,6.71466047 12.8037163,6.87614884 12.9590186,6.43173023 C13.2198093,6.68633488 13.8481814,7.44233488 13.7521349,8.06224186 C13.6560884,8.67954419 12.9762744,9.76047442 12.9590186,10.2674047" id="Fill-26" fill="#F4E207"></path>
                        <path d="M15.526814,21.454186 C15.526814,21.454186 14.5334651,21.8419535 13.6156512,21.8702791 C12.7242093,21.9129302 12.404814,21.9949767 11.3798837,23.905814 C12.1612791,23.9738605 13.961093,24.1324186 14.7682093,23.4386047 C15.5720698,22.7395814 15.526814,22.0802791 15.5440698,21.4037209 L15.526814,21.454186 Z" id="Fill-28" fill="#A43129"></path>
                        <path d="M15.4361721,21.8789721 C15.4361721,21.8789721 15.4983581,22.6206465 14.8755209,23.1695767 C14.2504047,23.7279488 12.7240791,24.0418093 11.3680326,23.9060419 C12.8318465,23.9848326 14.4089628,24.1801814 15.175707,22.968693 C15.3684512,22.6600419 15.4872884,22.1479023 15.4361721,21.8789721" id="Fill-30" fill="#231F20"></path>
                        <path d="M11.8047023,23.7561442 C11.8047023,23.7561442 12.2344698,22.7566093 12.6476326,22.4310279 C13.2626558,21.8225163 14.6603767,22.2614 15.283214,22.0207953 C15.1279116,22.4961442 14.9039116,23.2713535 14.0997256,23.5008884 C13.2987953,23.7278186 11.8047023,23.7561442 11.8047023,23.7561442" id="Fill-32" fill="#F4E207"></path>
                        <path d="M17.5311581,18.782107 C17.5311581,18.782107 16.6931116,19.416014 15.8326,19.7194558 C14.9860884,20.0388512 14.7171581,20.2062 14.2841349,22.3459209 C15.0710651,22.162293 16.8230186,21.7797349 17.4064605,20.8912233 C17.9495302,19.9822 17.7092512,19.3655488 17.5311581,18.714386 L17.5311581,18.782107 Z" id="Fill-34" fill="#A43129"></path>
                        <path d="M17.5759907,19.2038977 C17.5759907,19.2038977 17.8423163,19.8921767 17.4236186,20.5996651 C17.0019907,21.3185488 15.6316186,22.0800837 14.2954326,22.3460837 C15.7169209,21.9807814 17.2761302,21.7063163 17.6469674,20.3193395 C17.7407349,19.9709674 17.7036186,19.4445023 17.5759907,19.2038977" id="Fill-36" fill="#231F20"></path>
                        <path d="M14.6721628,22.0659209 C14.6721628,22.0659209 14.7796047,20.9762 15.0713256,20.5457814 C15.480907,19.7809907 16.9505814,19.7930372 17.4630465,19.3821535 C17.4630465,19.8718279 17.4916977,20.690014 16.7835581,21.140293 C16.0874651,21.6071767 14.6721628,22.0659209 14.6721628,22.0659209" id="Fill-38" fill="#F4E207"></path>
                        <path d="M18.459586,16.1496512 C18.459586,16.1496512 17.8478186,17.013093 17.1234,17.5678837 C16.4012605,18.1086744 16.1889814,18.3603488 16.4299116,20.5176512 C17.1234,20.1152326 18.6858651,19.2410465 18.9492605,18.2128605 C19.2126558,17.1713256 18.8105628,16.673186 18.4312605,16.0985349 L18.459586,16.1496512 Z" id="Fill-40" fill="#A43129"></path>
                        <path d="M18.6293767,16.5542512 C18.6293767,16.5542512 19.0936558,17.1262977 18.9038419,17.9360186 C18.7088186,18.7372744 17.6246326,19.8716 16.4297488,20.5175535 C17.6809581,19.7472279 19.0936558,19.011414 19.028214,17.5902512 C19.0226791,17.2226698 18.8217953,16.7385302 18.6293767,16.5542512" id="Fill-42" fill="#231F20"></path>
                        <path d="M16.7102047,20.1493209 C16.7102047,20.1493209 16.4949953,19.0849953 16.6307628,18.5813209 C16.8062512,17.7208093 18.2046233,17.3047163 18.5669953,16.7496 C18.7200186,17.2226698 18.9830884,17.9923442 18.4595535,18.6376465 C17.9220186,19.2891349 16.7102047,20.1493209 16.7102047,20.1493209" id="Fill-44" fill="#F4E207"></path>
                        <path d="M17.1744186,13.9499256 C17.1744186,13.9499256 16.9194884,14.6186698 16.7661395,15.1562047 C16.6085581,15.6937395 16.6306977,16.1495535 17.7262791,17.389693 C17.8193953,17.5254605 17.8031163,17.9158326 17.8031163,17.9158326 C18.2045581,17.4798791 18.7593488,16.8062512 18.3943721,15.611693 C17.9668837,14.2527163 17.423814,14.4197395 17.1744186,13.9499256" id="Fill-46" fill="#A43129"></path>
                        <path d="M17.3047814,14.2700698 C17.1289674,14.9378372 16.7555256,15.3256047 17.0075256,16.0477442 C17.2709209,16.673186 17.9220837,17.2279767 17.8937581,17.5141628 C18.3036651,16.9137907 18.4934791,16.562814 18.275014,15.7504884 C18.0799907,14.9860233 17.3047814,14.2700698 17.3047814,14.2700698" id="Fill-48" fill="#F4E207"></path>
                        <path d="M15.158614,11.8835581 C15.158614,11.8835581 15.2950326,12.6476977 15.4591256,13.2256047 C15.6232186,13.8028605 15.8833581,14.2101628 17.4630791,14.717093 C17.6245674,14.7796047 17.8195907,15.1563023 17.8195907,15.1563023 C17.9218233,14.5217442 18.0406605,13.5850465 17.0863814,12.7183488 C15.9966605,11.7194651 15.6232186,12.1925349 15.158614,11.8835581" id="Fill-50" fill="#A43129"></path>
                        <path d="M15.4307674,12.1129628 C15.6482558,12.8149163 15.5378837,13.3924977 16.1441163,13.9104977 C16.6930465,14.3291953 17.559093,14.4594279 17.6697907,14.7283581 C17.7033256,13.949893 17.6697907,13.5227302 17.0580233,12.9054279 C16.4752326,12.3304512 15.4307674,12.1129628 15.4307674,12.1129628" id="Fill-52" fill="#F4E207"></path>
                        <path d="M13.0954372,9.33614419 C13.0954372,9.33614419 13.2312047,10.103214 13.3871581,10.6720047 C13.556786,11.2378651 13.8143209,11.6542837 15.4021814,12.1579581 C15.5607395,12.2201442 15.756414,12.5994465 15.756414,12.5994465 C15.8550651,11.9687953 15.9631581,11.0314465 15.0114837,10.1598651 C13.9162279,9.16033023 13.556786,9.63014419 13.0954372,9.33614419" id="Fill-54" fill="#A43129"></path>
                        <path d="M13.3587023,9.55392558 C13.5761907,10.2672744 13.4661442,10.8389953 14.0658651,11.3569953 C14.6408419,11.7763442 15.4873535,11.9065767 15.6120512,12.1696465 C15.631586,11.393786 15.6120512,10.963693 14.9859581,10.3525767 C14.4090279,9.77466977 13.3587023,9.55392558 13.3587023,9.55392558" id="Fill-56" fill="#F4E207"></path>
                        <path d="M19.1896047,20.2313349 L19.1896047,20.2313349 L19.1896047,21.4343581 C19.5239767,21.4343581 19.7388605,21.397893 19.8466279,21.3129163 C19.9993256,21.2054744 20.0670465,21.0045907 20.0670465,20.7184047 C20.0670465,20.4833349 20.0162558,20.3078465 19.9198837,20.2004047 C19.8183023,20.0844977 19.6737442,20.0389163 19.4839302,20.0389163 C19.3657442,20.0389163 19.2804419,20.0444512 19.2576512,20.0672419 C19.2123953,20.0900326 19.1896047,20.1492884 19.1896047,20.2313349 M21.2899302,22.9606837 L21.2899302,23.0990558 L20.3024419,23.0990558 L19.3198372,21.5929163 L19.1896047,21.5929163 L19.1896047,22.5302651 C19.1896047,22.7054279 19.207186,22.8216605 19.2687209,22.8698465 C19.3198372,22.9063116 19.4276047,22.9401721 19.6004884,22.9606837 L19.6004884,23.0990558 L17.9836512,23.0990558 L17.9836512,22.9606837 C18.1767209,22.9401721 18.2750465,22.9063116 18.3092326,22.8838465 C18.3769535,22.8216605 18.403,22.7054279 18.403,22.5302651 L18.403,20.415614 C18.403,20.2313349 18.3714186,20.1128233 18.3036977,20.0561721 C18.2555116,19.9995209 18.1483953,19.9767302 17.9836512,19.9767302 L17.9836512,19.871893 L19.5321163,19.871893 C19.9654651,19.871893 20.3024419,19.9480791 20.5316512,20.0844977 C20.7634651,20.2313349 20.8855581,20.4377535 20.8855581,20.7073349 C20.8855581,20.9645442 20.7921163,21.1631488 20.6052326,21.3018465 C20.5088605,21.3806372 20.3480233,21.4542186 20.1295581,21.5108698 L21.0890465,22.8838465 C21.1206279,22.9124977 21.1483023,22.9401721 21.1769535,22.9401721 C21.2049535,22.951893 21.2397907,22.9606837 21.2899302,22.9606837" id="Fill-58" fill="#FFFFFF"></path>
                        <path d="M23.8380279,20.2454977 L23.8380279,20.2454977 L23.8380279,22.6603349 C23.8380279,22.7596372 23.8601674,22.8361488 23.8943535,22.8840093 C23.9344,22.9321953 23.9959349,22.9403349 24.1037023,22.9403349 C24.4152837,22.9403349 24.6418884,22.8439628 24.7916558,22.6492651 C24.9707256,22.4024744 25.072307,22.0264279 25.072307,21.4963814 C25.072307,21.1405209 25.0270512,20.8484744 24.922214,20.5883349 C24.7548651,20.2201023 24.5061209,20.0390791 24.1430977,20.0390791 C24.0359814,20.0390791 23.9565395,20.0560093 23.8943535,20.0843349 C23.8601674,20.1152651 23.8380279,20.1579163 23.8380279,20.2061023 L23.8380279,20.2454977 Z M22.6493302,23.1213581 L22.6493302,22.9914512 C22.8013767,22.9914512 22.9065395,22.9605209 22.9687256,22.9038698 C23.0253767,22.8498233 23.0621674,22.7677767 23.0621674,22.6886605 L23.0621674,20.3164744 C23.0621674,20.1862419 23.0169116,20.0843349 22.9348651,20.0442884 C22.8834233,20.0104279 22.790307,19.9993581 22.6493302,19.9821023 L22.6493302,19.8717302 L24.1268186,19.8717302 C24.7496558,19.8717302 25.2194698,20.0442884 25.5274698,20.3757302 C25.7856558,20.6560558 25.9155628,21.0047535 25.9155628,21.4397302 C25.9155628,21.9271256 25.7736093,22.3064279 25.4997953,22.620614 C25.1966791,22.9403349 24.7548651,23.1213581 24.1750047,23.1213581 L22.6493302,23.1213581 Z" id="Fill-60" fill="#FFFFFF"></path>
                        <path d="M8.58323721,3.19919535 L8.58323721,3.31217209 C8.44128372,3.32910233 8.35630698,3.36882326 8.28858605,3.42547442 C8.25765581,3.46486977 8.20653953,3.55798605 8.14402791,3.70547442 L7.06570233,6.47096279 L6.92700465,6.47096279 L5.70737674,3.63775349 C5.6504,3.51598605 5.61328372,3.42547442 5.55663256,3.39161395 C5.50877209,3.36882326 5.43812093,3.32910233 5.31602791,3.31217209 L5.31602791,3.19919535 L6.9156093,3.19919535 L6.9156093,3.31217209 C6.74565581,3.31217209 6.6408186,3.32356744 6.5848186,3.34049767 C6.52784186,3.36882326 6.50505116,3.42547442 6.50505116,3.51598605 C6.50505116,3.55798605 6.52784186,3.63775349 6.57895814,3.77319535 C6.59588837,3.81584651 6.62421395,3.87575349 6.64700465,3.91807907 L7.27537674,5.41770698 L7.86988837,3.8702186 C7.90374884,3.78752093 7.93207442,3.71719535 7.94867907,3.67714884 C7.94867907,3.62635814 7.97146977,3.57849767 7.97146977,3.53031163 C7.97146977,3.44826512 7.94314419,3.39161395 7.86988837,3.3522186 C7.80184186,3.32910233 7.6996093,3.31217209 7.55277209,3.31217209 L7.55277209,3.19919535 L8.58323721,3.19919535 Z" id="Fill-62" fill="#FFFFFF"></path>
                        <path d="M6.08335814,10.2674047 L6.08335814,10.2674047 L6.08335814,11.4674977 C6.08335814,11.5808 6.10940465,11.6540558 6.15433488,11.7054977 C6.20219535,11.7478233 6.27317209,11.7533581 6.37507907,11.7533581 C6.60689302,11.7533581 6.77391628,11.6856372 6.87647442,11.5241488 C6.93247442,11.3994512 6.9695907,11.2379628 6.9695907,11.0455442 C6.9695907,10.7482884 6.89014884,10.5187535 6.72052093,10.4061023 C6.60135814,10.3295907 6.44833488,10.2674047 6.23084651,10.2674047 L6.08335814,10.2674047 Z M6.08335814,9.07284651 L6.08335814,9.07284651 L6.08335814,10.128707 C6.39786977,10.128707 6.59028837,10.074986 6.69186977,9.9812186 C6.77945116,9.89070698 6.83382326,9.70675349 6.83382326,9.45442791 C6.83382326,9.2568 6.79996279,9.12949767 6.72052093,9.01293953 C6.6580093,8.90256744 6.51052093,8.83777674 6.33535814,8.83777674 C6.23084651,8.83777674 6.15726512,8.85763721 6.1260093,8.90256744 C6.10940465,8.9312186 6.09182326,8.98461395 6.08335814,9.07284651 L6.08335814,9.07284651 Z M4.89986977,11.9119163 L4.89986977,11.7930791 C5.06135814,11.7761488 5.16945116,11.7533581 5.2143814,11.7250326 C5.28796279,11.6771721 5.32182326,11.5980558 5.32182326,11.4531721 L5.32182326,9.16042791 C5.32182326,9.01293953 5.28796279,8.91982326 5.20266047,8.86870698 C5.14112558,8.83777674 5.04507907,8.81824186 4.89986977,8.80945116 L4.89986977,8.70168372 L6.38061395,8.70168372 C6.67526512,8.70168372 6.92140465,8.73293953 7.10503256,8.79545116 C7.45340465,8.91982326 7.62303256,9.14382326 7.62303256,9.45442791 C7.62303256,9.67842791 7.52698605,9.85098605 7.32577674,9.98414884 C7.25252093,10.0323349 7.10503256,10.0860558 6.8820093,10.1710326 C7.11675349,10.2104279 7.32577674,10.3068 7.4788,10.4145674 C7.68847442,10.5819163 7.79591628,10.7883349 7.79591628,11.0315442 C7.79591628,11.2607535 7.6940093,11.4531721 7.49866047,11.6201953 C7.2635907,11.8100093 6.90707907,11.9119163 6.44833488,11.9119163 L4.89986977,11.9119163 Z" id="Fill-64" fill="#FFFFFF"></path>
                        <path d="M0.914427907,5.72928837 L0.914427907,5.46589302 L1.99307907,5.07877674 L0.914427907,5.09277674 L0.914427907,4.85477674 L2.49675349,4.85477674 L2.49675349,5.13803256 L1.4780093,5.4942186 L2.49675349,5.4942186 L2.49675349,5.72928837 L0.914427907,5.72928837 Z M1.59945116,4.37942791 L2.0835907,4.26026512 L1.59945116,4.14142791 L1.59945116,4.37942791 Z M0.908893023,4.81245116 L0.908893023,4.54905581 L1.27973023,4.46147442 L1.27973023,4.07663721 L0.908893023,3.99166047 L0.908893023,3.72826512 L2.4912186,4.14142791 L2.4912186,4.38496279 L0.908893023,4.81245116 Z M2.57619535,4.51519535 L2.57619535,4.37389302 L2.72856744,4.27133488 L2.57619535,4.16747442 L2.57619535,4.03105581 L2.92424186,4.18082326 L2.92424186,4.37389302 L2.57619535,4.51519535 Z M0.914427907,3.72273023 L0.914427907,3.27798605 C0.914427907,3.2385907 0.919962791,3.19919535 0.928753488,3.18193953 C0.928753488,3.13928837 0.931683721,3.11096279 0.948288372,3.09435814 C0.960334884,3.0373814 1.0020093,3.0093814 1.0563814,2.95240465 C1.12670698,2.91854419 1.20614884,2.87589302 1.30773023,2.85082326 C1.42135814,2.82249767 1.53173023,2.80263721 1.67856744,2.80263721 C1.95335814,2.80263721 2.16270698,2.85082326 2.29586977,2.92407907 C2.42903256,3.0093814 2.4912186,3.11096279 2.4912186,3.27798605 L2.4912186,3.72273023 L2.17670698,3.72273023 L2.17670698,3.27798605 C2.17670698,3.19919535 2.14056744,3.14807907 2.07252093,3.1282186 C1.99307907,3.09435814 1.86284651,3.06603256 1.69289302,3.06603256 C1.53173023,3.06603256 1.42135814,3.09435814 1.35363721,3.11096279 C1.27973023,3.14807907 1.24554419,3.19919535 1.24554419,3.27798605 L1.24554419,3.47366047 L1.54833488,3.47366047 L1.54833488,3.2245907 L1.87391628,3.2245907 L1.87391628,3.72273023 L0.914427907,3.72273023 Z M0.914427907,2.6838 L0.914427907,2.43212558 L1.99307907,2.03849767 L0.914427907,2.03849767 L0.914427907,1.80928837 L2.4912186,1.80928837 L2.4912186,2.08375349 L1.4780093,2.45426512 L2.4912186,2.44873023 L2.4912186,2.6838 L0.914427907,2.6838 Z" id="Fill-66" fill="#005C3B"></path>
                        <path d="M0.903293023,10.1427721 L0.903293023,9.69021395 C0.903293023,9.64463256 0.909153488,9.61044651 0.914362791,9.57658605 C0.919897674,9.55379535 0.928688372,9.51993488 0.931618605,9.49714419 C0.960269767,9.45774884 0.987944186,9.42063256 1.04459535,9.36691163 C1.11003721,9.33012093 1.19468837,9.27933023 1.3079907,9.25653953 C1.40957209,9.22821395 1.52873488,9.22267907 1.66417674,9.22267907 C1.94189767,9.22267907 2.16264186,9.25653953 2.28473488,9.3359814 C2.41789767,9.41509767 2.4856186,9.5371907 2.4856186,9.69021395 L2.4856186,10.1427721 L2.16557209,10.1427721 L2.16557209,9.69021395 C2.16557209,9.61044651 2.13431628,9.56551628 2.06073488,9.5371907 C1.98747907,9.49714419 1.85171163,9.47728372 1.68175814,9.47728372 C1.52873488,9.47728372 1.40957209,9.49714419 1.34738605,9.5371907 C1.27966512,9.56551628 1.23994419,9.61044651 1.23994419,9.69021395 L1.23994419,9.90770233 L1.5459907,9.90770233 L1.5459907,9.63030698 L1.85724651,9.63030698 L1.85724651,10.1427721 L0.903293023,10.1427721 Z M0.903293023,9.12337674 L0.903293023,8.84044651 L1.98747907,8.47514419 L0.903293023,8.47514419 L0.903293023,8.23486512 L2.49115349,8.23486512 L2.49115349,8.51486512 L1.47208372,8.88602791 L2.49115349,8.86877209 L2.49115349,9.12337674 L0.903293023,9.12337674 Z M1.59417674,7.75626047 L2.08352558,7.62309767 L1.59417674,7.50458605 L1.59417674,7.75626047 Z M0.914362791,8.17821395 L0.914362791,7.9148186 L1.27966512,7.8239814 L1.27966512,7.43686512 L0.914362791,7.36035349 L0.914362791,7.09728372 L2.49115349,7.50458605 L2.49115349,7.75626047 L0.914362791,8.17821395 Z M2.5819907,7.77058605 L2.5819907,7.64035349 L2.92417674,7.37142326 L2.92417674,7.61202791 L2.5819907,7.77058605 Z M0.914362791,7.04909767 L0.914362791,6.83388837 L1.54826977,6.83388837 L1.54826977,6.49951628 L0.914362791,6.49951628 L0.914362791,6.25891163 L2.49115349,6.25891163 L2.49115349,6.49951628 L1.86831628,6.49951628 L1.86831628,6.83388837 L2.49115349,6.83388837 L2.49115349,7.04909767 L0.914362791,7.04909767 Z" id="Fill-68" fill="#005C3B"></path>
                        <path d="M0.914427907,14.6517814 L0.914427907,14.2076884 C0.914427907,14.162107 0.919962791,14.1282465 0.928753488,14.106107 C0.928753488,14.0634558 0.931683721,14.0377349 0.948288372,14.0152698 C0.960334884,13.9670837 1.0020093,13.9332233 1.0563814,13.8876419 C1.12670698,13.8427116 1.20614884,13.8000605 1.30773023,13.7717349 C1.42135814,13.7463395 1.53173023,13.7378744 1.67856744,13.7378744 C1.95335814,13.7378744 2.16270698,13.7717349 2.29586977,13.8427116 C2.42903256,13.9270372 2.4912186,14.0377349 2.4912186,14.2076884 L2.4912186,14.6517814 L2.17670698,14.6517814 L2.17670698,14.2076884 C2.17670698,14.1282465 2.14056744,14.0777814 2.07252093,14.0377349 C1.99307907,14.0152698 1.86284651,13.9869442 1.69289302,13.9869442 C1.53173023,13.9869442 1.42135814,14.0152698 1.35363721,14.0377349 C1.27973023,14.0777814 1.24554419,14.1282465 1.24554419,14.2076884 L1.24554419,14.4085721 L1.54833488,14.4085721 L1.54833488,14.1337814 L1.87391628,14.1337814 L1.87391628,14.6517814 L0.914427907,14.6517814 Z M0.914427907,13.6242465 L0.914427907,13.3611767 L1.99307907,12.9874093 L0.914427907,12.9874093 L0.914427907,12.7445256 L2.49675349,12.7445256 L2.49675349,13.0385256 L1.4780093,13.3979674 L2.49675349,13.3924326 L2.49675349,13.6242465 L0.914427907,13.6242465 Z M1.70689302,12.3906186 C1.87391628,12.3906186 2.01586977,12.3619674 2.0835907,12.3307116 C2.16563721,12.2799209 2.20828837,12.2203395 2.20828837,12.1356884 C2.20828837,12.0595023 2.16563721,11.9969907 2.0835907,11.9543395 C2.04419535,11.9348047 1.99307907,11.9286186 1.93089302,11.912014 C1.8683814,11.9009442 1.78893953,11.9009442 1.70982326,11.9009442 C1.5288,11.9009442 1.39303256,11.9175488 1.31912558,11.9514093 C1.24554419,11.9969907 1.18335814,12.0595023 1.18335814,12.1356884 C1.18335814,12.2203395 1.24554419,12.2799209 1.31912558,12.328107 C1.39303256,12.3619674 1.5288,12.3906186 1.70689302,12.3906186 L1.70689302,12.3906186 Z M1.70689302,12.6279674 C1.42135814,12.6279674 1.20614884,12.5970372 1.07624186,12.5231302 C0.937218605,12.4329442 0.875032558,12.302386 0.875032558,12.1356884 C0.875032558,11.9686651 0.937218605,11.8384326 1.07624186,11.7589907 C1.20614884,11.6857349 1.43242791,11.6486186 1.71861395,11.6486186 C1.98754419,11.6486186 2.19103256,11.6857349 2.31866047,11.7589907 C2.45182326,11.8439674 2.5140093,11.9686651 2.5140093,12.1356884 C2.5140093,12.316386 2.44563721,12.4329442 2.30693953,12.5231302 C2.17670698,12.5970372 1.97582326,12.6279674 1.70689302,12.6279674 L1.70689302,12.6279674 Z M2.57619535,12.3906186 L2.57619535,12.2375953 L2.72856744,12.1356884 L2.57619535,12.036386 L2.57619535,11.9009442 L2.92424186,12.0595023 L2.92424186,12.2203395 L2.57619535,12.3906186 Z M0.908893023,11.5242465 L0.908893023,11.2605256 L1.98754419,10.8616884 L0.908893023,10.8792698 L0.908893023,10.6435488 L2.4912186,10.6435488 L2.4912186,10.9209442 L1.47182326,11.278107 L2.4912186,11.278107 L2.4912186,11.5242465 L0.908893023,11.5242465 Z" id="Fill-70" fill="#005C3B"></path>
                        <path d="M1.95905581,20.191907 C2.03263721,20.191907 2.08375349,20.1635814 2.11207907,20.1492558 C2.14040465,20.1349302 2.16254419,20.0672093 2.16254419,20.0050233 L2.16254419,19.7927442 L1.77217209,19.7927442 L1.77217209,20.0105581 L1.77217209,20.1010698 C1.77217209,20.1153953 1.78910233,20.1407907 1.80603256,20.1492558 C1.84575349,20.1635814 1.88514884,20.191907 1.95905581,20.191907 L1.95905581,20.191907 Z M1.95905581,20.4377209 C1.85747442,20.4377209 1.78324186,20.432186 1.71845116,20.4155814 C1.6390093,20.3927907 1.57682326,20.3644651 1.54589302,20.3195349 C1.50356744,20.2879535 1.47817209,20.2456279 1.46645116,20.205907 C1.44984651,20.191907 1.44366047,20.1492558 1.44366047,20.1407907 C1.43812558,20.1010698 1.43812558,20.0672093 1.43812558,20.0105581 L1.43812558,19.7927442 L0.903195349,19.7927442 L0.903195349,19.5547442 L2.4913814,19.5547442 L2.4913814,20.0050233 C2.4913814,20.0844651 2.47412558,20.1492558 2.45752093,20.2003721 C2.45752093,20.2202326 2.45166047,20.2342326 2.44026512,20.2456279 C2.42886977,20.268093 2.4178,20.2879535 2.40640465,20.3022791 C2.35496279,20.3533953 2.29570698,20.3755349 2.22245116,20.4038605 C2.14593953,20.432186 2.06063721,20.4377209 1.95905581,20.4377209 L1.95905581,20.4377209 Z M0.487102326,19.1305116 L0.804218605,19.1305116 L0.804218605,18.9436279 L0.487102326,18.9436279 L0.487102326,19.1305116 Z M0.920125581,19.3994419 L0.920125581,19.04 C0.920125581,18.9690233 0.928590698,18.9068372 0.948451163,18.8674419 C0.960172093,18.8104651 1.00217209,18.7710698 1.0562186,18.7310233 C1.12654419,18.6802326 1.20598605,18.6463721 1.30789302,18.6151163 C1.42152093,18.5864651 1.54589302,18.5864651 1.68166047,18.5864651 C1.95905581,18.5864651 2.1658,18.6151163 2.29570698,18.6971628 C2.43440465,18.7710698 2.50245116,18.878186 2.50245116,19.0455349 L2.50245116,19.3994419 L2.17426512,19.3994419 L2.17426512,19.0621395 C2.17426512,18.9833488 2.1570093,18.9296279 2.10035814,18.9068372 C2.05510233,18.8674419 1.97566047,18.8531163 1.87961395,18.8387907 L1.87407907,19.3994419 L1.54849767,19.3994419 L1.54849767,18.8387907 C1.51203256,18.8387907 1.46091628,18.8498605 1.42152093,18.8531163 C1.37561395,18.8674419 1.35347442,18.878186 1.31896279,18.878186 C1.26849767,18.9153023 1.24570698,18.9833488 1.24570698,19.0621395 L1.24570698,19.3994419 L0.920125581,19.3994419 Z M2.58189302,19.3033953 L2.58189302,19.1786977 L2.73491628,19.0738605 L2.58189302,18.9546977 L2.58189302,18.816 L2.94133488,18.9833488 L2.94133488,19.158186 L2.58189302,19.3033953 Z M0.909055814,18.462093 L2.4913814,18.462093 L2.4913814,18.2270233 L0.909055814,18.2270233 L0.909055814,18.462093 Z M0.909055814,18.018 L0.909055814,17.7887907 L1.54849767,17.7887907 L1.54849767,17.4514884 L0.909055814,17.4514884 L0.909055814,17.2226047 L2.4913814,17.2226047 L2.4913814,17.4514884 L1.86854419,17.4514884 L1.86854419,17.7887907 L2.4913814,17.7887907 L2.4913814,18.018 L0.909055814,18.018 Z M0.920125581,17.0640465 L0.920125581,16.6163721 C0.920125581,16.5880465 0.920125581,16.554186 0.928590698,16.5147907 C0.931846512,16.4864651 0.931846512,16.4526047 0.948451163,16.4350233 C0.97124186,16.3956279 1.01617209,16.3562326 1.0562186,16.3191163 C1.12654419,16.2513953 1.20598605,16.2230698 1.30789302,16.1892093 C1.42152093,16.1664186 1.54589302,16.1494884 1.68166047,16.1494884 C1.95905581,16.1494884 2.1658,16.1892093 2.29570698,16.2712558 C2.43440465,16.3562326 2.50245116,16.4633488 2.50245116,16.6163721 L2.50245116,17.0640465 L2.17654419,17.0640465 L2.17654419,16.6163721 C2.17654419,16.554186 2.14593953,16.5037209 2.07268372,16.4633488 C1.99291628,16.4350233 1.86854419,16.4128837 1.69273023,16.4128837 C1.53742791,16.4128837 1.42705581,16.4350233 1.35347442,16.4633488 C1.27956744,16.5037209 1.24570698,16.554186 1.24570698,16.6163721 L1.24570698,16.8231163 L1.54849767,16.8231163 L1.54849767,16.5629767 L1.87407907,16.5629767 L1.87407907,17.0640465 L0.920125581,17.0640465 Z M0.903195349,16.0195814 L0.903195349,15.7617209 L1.98184651,15.3739535 L0.903195349,15.3827442 L0.903195349,15.1499535 L2.4913814,15.1499535 L2.4913814,15.4306047 L1.47198605,15.8011163 L2.4913814,15.7900465 L2.4913814,16.0195814 L0.903195349,16.0195814 Z" id="Fill-72" fill="#005C3B"></path>
                        <path d="M1.6051814,22.3797488 L2.08932093,22.2615628 L1.6051814,22.1564 L1.6051814,22.3797488 Z M0.914297674,22.8157023 L0.914297674,22.552307 L1.2796,22.4679814 L1.2796,22.0658884 L0.914297674,21.980586 L0.914297674,21.7350977 L2.49141395,22.1564 L2.49141395,22.3862605 L0.914297674,22.8157023 Z M2.58192558,22.4057953 L2.58192558,22.272307 L2.94136744,22.0089116 L2.94136744,22.2615628 L2.58192558,22.4057953 Z M2.49141395,21.8480744 L0.909088372,21.4264465 L0.909088372,21.1969116 L2.49141395,20.7609581 L2.49141395,21.0321674 L1.40397209,21.3017488 L2.49141395,21.5928186 L2.49141395,21.8480744 Z" id="Fill-74" fill="#005C3B"></path>
                        <path d="M2.2452093,23.9739256 C2.30674419,23.9452744 2.35493023,23.9169488 2.37218605,23.897414 C2.3975814,23.8632279 2.3975814,23.8124372 2.37218605,23.7333209 L2.30674419,23.5343907 L1.93069767,23.6369488 L2.01567442,23.8746233 C2.01567442,23.9026233 2.02706977,23.9169488 2.03260465,23.9345302 C2.06093023,23.9563442 2.07265116,23.9739256 2.08925581,23.9794605 C2.13418605,23.9846698 2.17683721,23.9846698 2.2452093,23.9739256 M2.32432558,24.2314605 C2.23674419,24.2536 2.16283721,24.2708558 2.08372093,24.2708558 C2.01567442,24.2708558 1.94176744,24.2536 1.88511628,24.2373209 C1.83465116,24.2229953 1.78906977,24.1803442 1.77213953,24.1409488 C1.7604186,24.1266233 1.75260465,24.1038326 1.73827907,24.0699721 C1.7272093,24.0416465 1.70995349,24.007786 1.69269767,23.9739256 L1.62237209,23.7333209 L1.11544186,23.9058791 L1.04446512,23.6708093 L2.548,23.1948093 L2.68376744,23.6369488 C2.71209302,23.7216 2.72869767,23.7727163 2.72869767,23.8205767 C2.72869767,23.8547628 2.72869767,23.8830884 2.72316279,23.897414 C2.71762791,23.9169488 2.71209302,23.9345302 2.70655814,23.9563442 C2.67237209,24.007786 2.6267907,24.0641116 2.56460465,24.1067628 C2.49688372,24.1552744 2.41776744,24.2031349 2.32432558,24.2314605" id="Fill-76" fill="#005C3B"></path>
                        <polygon id="Fill-78" fill="#005C3B" points="1.71851628 25.601214 1.60521395 25.3690744 2.16586512 25.083214 2.01577209 24.7833535 1.4381907 25.0776791 1.33074884 24.8598651 2.7349814 24.1321907 2.83949302 24.3503302 2.29577209 24.6391209 2.45172558 24.9389814 3.00912093 24.6645163 3.11428372 24.8598651"></polygon>
                        <path d="M2.8847814,25.8533442 L3.13059535,25.4232512 L2.71743256,25.6863209 L2.8847814,25.8533442 Z M2.7516186,26.6630651 L2.54813023,26.4706465 L2.72882791,26.1395302 L2.43450233,25.8702744 L2.12324651,26.0770186 L1.93082791,25.9012047 L3.32333953,25.0491581 L3.51054884,25.2139023 L2.7516186,26.6630651 Z M3.91752558,24.9954372 L3.48222326,25.0579488 L3.36892093,24.9671116 L3.72543256,24.8202744 L3.91752558,24.9954372 Z" id="Fill-80" fill="#005C3B"></path>
                        <polygon id="Fill-82" fill="#005C3B" points="4.39915814 25.9045256 4.09897209 25.7996884 3.67148372 26.9714558 3.43641395 26.8949442 3.84990233 25.7202465 3.55232093 25.6128047 3.66041395 25.310014 4.50073953 25.6010837"></polygon>
                        <path d="M9.19432093,27.1528047 L8.91692558,27.1528047 L8.52036744,26.0826186 L8.52655349,27.1528047 L8.27194884,27.1528047 L8.27194884,25.5789442 L8.58320465,25.5789442 L8.94525116,26.5950837 L8.93971628,25.5789442 L9.19432093,25.5789442 L9.19432093,27.1528047 Z M8.0170186,25.4851767 L7.8753907,25.4851767 L7.77348372,25.3321535 L7.65464651,25.4851767 L7.51594884,25.4851767 L7.67125116,25.1397349 L7.85813488,25.1397349 L8.0170186,25.4851767 Z M8.22604186,25.0296884 C8.22604186,25.0775488 8.21204186,25.1175953 8.20650698,25.1452698 C8.18371628,25.1739209 8.14985581,25.1934558 8.12446047,25.1934558 L8.06520465,25.1934558 C8.0450186,25.1934558 8.03687907,25.1934558 8.03687907,25.1967116 C8.03394884,25.2139674 8.03394884,25.2305721 8.03394884,25.2475023 L8.03394884,25.2755023 L7.94311163,25.2755023 L7.94311163,25.2305721 C7.94311163,25.1739209 7.94864651,25.1312698 7.97143721,25.1091302 C7.97697209,25.0834093 7.99422791,25.0834093 8.00529767,25.0775488 C8.0170186,25.0752698 8.03394884,25.0576884 8.0450186,25.0576884 L8.09613488,25.0576884 L8.12446047,25.0576884 L8.12446047,25.0296884 L8.12446047,24.9955023 C8.11013488,24.9899674 8.10720465,24.9899674 8.09613488,24.9899674 L7.93204186,24.9899674 L7.93204186,24.8483395 L8.10720465,24.8483395 C8.12446047,24.8483395 8.14399535,24.8535488 8.14985581,24.8597349 C8.16157674,24.8597349 8.18371628,24.8711302 8.18371628,24.8818744 C8.20097209,24.8962 8.20650698,24.9049907 8.21204186,24.9388512 C8.21757674,24.9671767 8.22604186,24.9955023 8.22604186,25.0296884 L8.22604186,25.0296884 Z M8.11013488,27.1528047 L7.74515814,27.1528047 C7.6601814,27.1528047 7.59766977,27.1384791 7.5498093,27.1241535 C7.51041395,27.1046186 7.46483256,27.0619674 7.41957674,27.0053163 C7.3713907,26.9548512 7.3258093,26.8666186 7.29813488,26.7559209 C7.2698093,26.6520605 7.26362326,26.5384326 7.26362326,26.3883395 C7.26362326,26.1112698 7.29813488,25.910386 7.38278605,25.7713628 C7.45343721,25.6469907 7.57813488,25.5789442 7.74515814,25.5789442 L8.11013488,25.5789442 L8.11013488,25.9012698 L7.75069302,25.9012698 C7.67125116,25.9012698 7.62632093,25.9155953 7.58920465,25.9725721 C7.56673953,26.0292233 7.53548372,26.1021535 7.52669302,26.1933163 L8.11013488,26.1933163 L8.11013488,26.5273628 L7.52669302,26.5273628 C7.52669302,26.5755488 7.53255349,26.6172233 7.54427442,26.6520605 C7.5498093,26.7080605 7.56673953,26.722386 7.57813488,26.7507116 C7.60873953,26.8044326 7.66864651,26.8327581 7.75069302,26.8327581 L8.11013488,26.8327581 L8.11013488,27.1528047 Z M6.8761814,27.1528047 L7.1333907,27.1528047 L7.1333907,25.5789442 L6.8761814,25.5789442 L6.8761814,27.1528047 Z M6.46562326,26.0627581 C6.46562326,26.0119674 6.45455349,25.9667116 6.42622791,25.9387116 C6.41450698,25.9155953 6.35850698,25.9045256 6.2986,25.9045256 L6.06353023,25.9045256 L6.06353023,26.230107 L6.2986,26.230107 C6.35232093,26.230107 6.40897209,26.2128512 6.42622791,26.1933163 C6.45455349,26.1672698 6.46562326,26.1190837 6.46562326,26.0627581 L6.46562326,26.0627581 Z M6.77394884,27.1528047 L6.49948372,27.1528047 L6.27320465,26.5495023 L6.06353023,26.5495023 L6.06353023,27.1528047 L5.81446047,27.1528047 L5.81446047,25.5789442 L6.34092558,25.5789442 C6.47115814,25.5789442 6.57306512,25.6131302 6.61864651,25.6919209 C6.68083256,25.7713628 6.71469302,25.9012698 6.71469302,26.0627581 C6.71469302,26.1874558 6.69190233,26.2753628 6.65804186,26.3603395 C6.6241814,26.4368512 6.57892558,26.4795023 6.51055349,26.512386 L6.77394884,27.1528047 Z M5.72362326,25.9012698 L5.40129767,25.9012698 L5.40129767,27.1528047 L5.14669302,27.1528047 L5.14669302,25.9012698 L4.83511163,25.9012698 L4.83511163,25.5789442 L5.72362326,25.5789442 L5.72362326,25.9012698 Z" id="Fill-84" fill="#005C3B"></path>
                        <path d="M13.9160651,27.1528047 L13.4374605,27.1528047 C13.3980651,27.1528047 13.3586698,27.1528047 13.341414,27.1384791 C13.2987628,27.1384791 13.2626233,27.130014 13.2482977,27.1101535 C13.2027163,27.1013628 13.1574605,27.0564326 13.1118791,27.0053163 C13.061414,26.9548512 13.0213674,26.8666186 12.9992279,26.7559209 C12.9709023,26.6520605 12.9591814,26.5384326 12.9591814,26.3883395 C12.9591814,26.1112698 12.9992279,25.910386 13.0780186,25.7713628 C13.1574605,25.6469907 13.2759721,25.5789442 13.4374605,25.5789442 L13.9160651,25.5789442 L13.9160651,25.9012698 L13.4374605,25.9012698 C13.3697395,25.9012698 13.3160186,25.9299209 13.2759721,26.0119674 C13.2421116,26.0826186 13.2199721,26.1959209 13.2199721,26.3658744 C13.2199721,26.5384326 13.2421116,26.6458744 13.2704372,26.7197814 C13.3160186,26.790107 13.3697395,26.8246186 13.4374605,26.8246186 L13.6559256,26.8246186 L13.6559256,26.5273628 L13.3808093,26.5273628 L13.3808093,26.1933163 L13.9160651,26.1933163 L13.9160651,27.1528047 Z M12.8318791,27.1528047 L12.5632744,27.1528047 L12.1611814,26.0826186 L12.1696465,27.1528047 L11.9176465,27.1528047 L11.9176465,25.5789442 L12.2116465,25.5789442 L12.5971349,26.5950837 L12.5798791,25.5789442 L12.8318791,25.5789442 L12.8318791,27.1528047 Z M11.5295535,26.3603395 C11.5295535,26.1933163 11.507414,26.0627581 11.4673674,25.9833163 C11.4279721,25.9012698 11.3680651,25.8586186 11.2837395,25.8586186 C11.1984372,25.8586186 11.1362512,25.9012698 11.085786,25.9833163 C11.0626698,26.0204326 11.0457395,26.0770837 11.0402047,26.1308047 C11.0226233,26.1933163 11.0226233,26.264293 11.0226233,26.348293 C11.0226233,26.5384326 11.0402047,26.6631302 11.0796,26.7507116 C11.1362512,26.8246186 11.1929023,26.8666186 11.2837395,26.8666186 C11.3680651,26.8666186 11.4279721,26.8246186 11.4673674,26.7507116 C11.507414,26.6631302 11.5295535,26.5384326 11.5295535,26.3603395 L11.5295535,26.3603395 Z M11.7929488,26.3603395 C11.7929488,26.6344791 11.7590884,26.8470837 11.657507,26.9714558 C11.5777395,27.1101535 11.4507628,27.1866651 11.2837395,27.1866651 C11.1023907,27.1866651 10.9721581,27.1101535 10.8956465,26.9714558 C10.8106698,26.8470837 10.7680186,26.6292698 10.7680186,26.348293 C10.7680186,26.0826186 10.8106698,25.8817349 10.8956465,25.754107 C10.9721581,25.6131302 11.1023907,25.5506186 11.2837395,25.5506186 C11.4507628,25.5506186 11.5777395,25.6131302 11.657507,25.7570372 C11.7590884,25.8817349 11.7929488,26.0969442 11.7929488,26.3603395 L11.7929488,26.3603395 Z M11.5295535,25.4851767 L11.3882512,25.4851767 L11.2837395,25.3321535 L11.1701116,25.4851767 L11.0226233,25.4851767 L11.1873674,25.1397349 L11.3680651,25.1397349 L11.5295535,25.4851767 Z M10.6325767,27.1528047 L10.3776465,27.1528047 L9.97555349,26.0826186 L9.98141395,27.1528047 L9.72648372,27.1528047 L9.72648372,25.5789442 L10.0182047,25.5789442 L10.4059721,26.5950837 L10.3945767,25.5789442 L10.6325767,25.5789442 L10.6325767,27.1528047 Z" id="Fill-86" fill="#005C3B"></path>
                        <path d="M18.3431907,27.1528047 L18.0631907,27.1528047 L17.6640279,26.0826186 L17.6698884,27.1528047 L17.4237488,27.1528047 L17.4237488,25.5789442 L17.7092837,25.5789442 L18.0915163,26.5950837 L18.0915163,25.5789442 L18.3431907,25.5789442 L18.3431907,27.1528047 Z M17.0239349,26.3603395 C17.0239349,26.1933163 17.0073302,26.0627581 16.9760744,25.9833163 C16.9308186,25.9012698 16.8630977,25.8586186 16.7836558,25.8586186 C16.6931442,25.8586186 16.6250977,25.9012698 16.5857023,25.9833163 C16.5739814,26.0204326 16.5518419,26.0770837 16.5518419,26.1308047 C16.5290512,26.1933163 16.5290512,26.264293 16.5290512,26.348293 C16.5290512,26.5384326 16.5518419,26.6631302 16.5857023,26.7507116 C16.6250977,26.8246186 16.6931442,26.8666186 16.7836558,26.8666186 C16.8630977,26.8666186 16.9223535,26.8246186 16.9760744,26.7507116 C17.0073302,26.6631302 17.0239349,26.5384326 17.0239349,26.3603395 L17.0239349,26.3603395 Z M17.3049116,26.3603395 C17.3049116,26.6344791 17.2424,26.8470837 17.1743535,26.9714558 C17.0750512,27.1101535 16.9506791,27.1866651 16.7836558,27.1866651 C16.5967721,27.1866651 16.4753302,27.1101535 16.3903535,26.9714558 C16.3112372,26.8470837 16.2689116,26.6292698 16.2689116,26.348293 C16.2689116,26.0826186 16.3112372,25.8817349 16.3903535,25.754107 C16.4753302,25.6131302 16.5967721,25.5506186 16.7836558,25.5506186 C16.9672837,25.5506186 17.0864465,25.6131302 17.1743535,25.7570372 C17.2424,25.9012698 17.3049116,26.0969442 17.3049116,26.3603395 L17.3049116,26.3603395 Z M17.0187256,25.4851767 L16.8907721,25.4851767 L16.7781209,25.3321535 L16.6589581,25.4851767 L16.5290512,25.4851767 L16.6872837,25.1397349 L16.8630977,25.1397349 L17.0187256,25.4851767 Z M16.144214,27.1528047 L15.8830977,27.1528047 L15.8830977,26.5273628 L15.5379814,26.5273628 L15.5379814,27.1528047 L15.300307,27.1528047 L15.300307,25.5789442 L15.5379814,25.5789442 L15.5379814,26.1933163 L15.8830977,26.1933163 L15.8830977,25.5789442 L16.144214,25.5789442 L16.144214,27.1528047 Z M15.2097953,25.9012698 L14.8985395,25.9012698 L14.8985395,27.1528047 L14.6439349,27.1528047 L14.6406791,25.9012698 L14.3235628,25.9012698 L14.3235628,25.5789442 L15.2097953,25.5789442 L15.2097953,25.9012698 Z" id="Fill-88" fill="#005C3B"></path>
                        <path d="M22.0657581,25.9013674 L21.7369209,25.9013674 L21.7369209,27.1529023 L21.4940372,27.1529023 L21.4940372,25.9013674 L21.1655256,25.9013674 L21.1655256,25.5790419 L22.0657581,25.5790419 L22.0657581,25.9013674 Z M20.6165953,27.5888558 L20.8314791,27.5888558 L20.8314791,27.257414 L20.6165953,27.257414 L20.6165953,27.5888558 Z M21.1033395,27.1529023 L20.7295721,27.1529023 C20.6387349,27.1529023 20.5938047,27.1385767 20.5485488,27.1242512 C20.4922233,27.1014605 20.4521767,27.0617395 20.4124558,27.005414 C20.3532,26.9546233 20.3196651,26.8582512 20.2848279,26.7560186 C20.263014,26.6521581 20.2454326,26.5385302 20.2454326,26.3884372 C20.2454326,26.1113674 20.2848279,25.9046233 20.3812,25.7714605 C20.4521767,25.6470884 20.5658047,25.5790419 20.735107,25.5790419 L21.1033395,25.5790419 L21.1033395,25.9013674 L20.7468279,25.9013674 C20.6729209,25.9013674 20.6165953,25.915693 20.5820837,25.9726698 C20.5544093,26.0293209 20.5316186,26.1022512 20.5260837,26.1930884 L21.1033395,26.1930884 L21.1033395,26.5274605 L20.5260837,26.5274605 C20.5260837,26.5753209 20.5316186,26.6173209 20.5316186,26.6521581 C20.5485488,26.7081581 20.5599442,26.7221581 20.5765488,26.7504837 C20.6052,26.8097395 20.667386,26.8325302 20.7468279,26.8325302 L21.1033395,26.8325302 L21.1033395,27.1529023 Z M21.0014326,25.4852744 L20.8855256,25.4852744 L20.7634326,25.3322512 L20.6387349,25.4852744 L20.5088279,25.4852744 L20.6729209,25.1398326 L20.8572,25.1398326 L21.0014326,25.4852744 Z M19.8752465,27.1529023 L20.1187814,27.1529023 L20.1187814,25.5790419 L19.8752465,25.5790419 L19.8752465,27.1529023 Z M19.8352,25.5790419 L19.405107,27.1529023 L19.1557116,27.1529023 L18.7086884,25.5790419 L18.9942233,25.5790419 L19.2804093,26.6632279 L19.5773395,25.5790419 L19.8352,25.5790419 Z" id="Fill-90" fill="#005C3B"></path>
                        <path d="M25.785786,27.1528047 L25.5389953,27.1528047 L25.5562512,26.1112698 L25.3322512,27.1528047 L25.0887163,27.1528047 L24.8624372,26.1112698 L24.8709023,27.1528047 L24.6306233,27.1528047 L24.6306233,25.5789442 L24.9529488,25.5789442 L25.2020186,26.6937349 L25.4458791,25.5789442 L25.785786,25.5789442 L25.785786,27.1528047 Z M24.1266233,26.4589907 L24.0019256,25.9833163 L23.8889488,26.4589907 L24.1266233,26.4589907 Z M24.579507,27.1528047 L24.3079721,27.1528047 L24.2174605,26.790107 L23.8098326,26.790107 L23.7072744,27.1528047 L23.4559256,27.1528047 L23.8941581,25.5789442 L24.137693,25.5789442 L24.579507,27.1528047 Z M23.4188093,27.1528047 L23.1469488,27.1528047 L22.745507,26.0826186 L22.7562512,27.1528047 L22.507507,27.1528047 L22.507507,25.5789442 L22.793693,25.5789442 L23.1697395,26.5950837 L23.1697395,25.5789442 L23.4188093,25.5789442 L23.4188093,27.1528047 Z" id="Fill-92" fill="#005C3B"></path>
                    </g>
                </g>
            </g>
        </g>
    </g>
</svg>