<?xml version="1.0" encoding="UTF-8"?>
<svg width="36px" height="17px" viewBox="0 0 36 17" version="1.1" xmlns="http://www.w3.org/2000/svg" xmlns:xlink="http://www.w3.org/1999/xlink">
    <!-- Generator: Sketch 55.2 (78181) - https://sketchapp.com -->
    <title>bank-vib</title>
    <desc>Created with Sketch.</desc>
    <defs>
        <rect id="path-1" x="0" y="0" width="36" height="36"></rect>
    </defs>
    <g id="Page-1" stroke="none" stroke-width="1" fill="none" fill-rule="evenodd">
        <g id="bank-vib" transform="translate(0.000000, -7.000000)">
            <mask id="mask-2" fill="white">
                <use xlink:href="#path-1"></use>
            </mask>
            <g id="Mask"></g>
            <g id="vib" mask="url(#mask-2)">
                <g transform="translate(0.000000, 7.000000)" id="Page-1">
                    <g>
                        <path d="M32.8369232,2.32876712e-05 C31.8954397,2.32876712e-05 31.4814397,0.215434247 30.960155,0.753379452 L29.7608305,2.03536575 L28.5660358,0.753379452 C28.0435589,0.215434247 27.6300358,2.32876712e-05 26.6883139,2.32876712e-05 L25.2974265,2.32876712e-05 C25.2974265,2.32876712e-05 27.4799563,2.6538863 27.7543669,2.9598863 C28.2165258,3.47396164 28.5494662,3.72570137 29.1935325,3.72570137 L30.331943,3.72570137 C30.9767245,3.72570137 31.3058503,3.47559178 31.7726583,2.9598863 C32.0464728,2.6538863 34.2282874,2.32876712e-05 34.2282874,2.32876712e-05 L32.8369232,2.32876712e-05 Z" id="Fill-1" fill="#FCB813"></path>
                        <path d="M32.0639483,3.45622808 C31.3738689,3.59234452 30.9891934,3.7465089 30.6684119,4.29307055 L30.3813656,4.77547466 L30.0965841,5.25624863 C29.7750874,5.80141301 29.8318291,6.20475548 30.0540278,6.85669384 C30.1878954,7.23896096 31.4500411,10.4143514 31.4500411,10.4143514 L32.1484649,9.2365774 C32.6187298,8.43897466 32.636253,7.98393356 32.4213258,7.27377603 L31.8809682,5.61941986 L33.6170742,5.24833082 C34.3532861,5.07588562 34.7502397,4.83101575 35.2212199,4.03597466 L35.916902,2.85855 C35.916902,2.85855 32.4716305,3.37565274 32.0639483,3.45622808" id="Fill-3" fill="#F37820"></path>
                        <path d="M29.4272344,5.25629521 L29.1411417,4.77552123 L28.8570755,4.29311712 C28.5341483,3.74643904 28.1482808,3.5923911 27.4622543,3.45627466 C27.0521881,3.37569932 23.6072742,2.85848014 23.6072742,2.85848014 L24.3055788,4.03602123 C24.7746517,4.83374041 25.1700556,5.07593219 25.9087709,5.2483774 L27.6440424,5.61946644 L27.1022543,7.2738226 C26.8887576,7.98398014 26.9066384,8.44041849 27.3772609,9.23662397 L28.0715126,10.4142815 C28.0715126,10.4142815 29.3361616,7.23900753 29.470506,6.85674041 C29.6919894,6.20480205 29.7489695,5.80134315 29.4272344,5.25629521" id="Fill-5" fill="#F6931D"></path>
                        <path d="M23.1042278,11.329289 C23.1886252,11.2858575 23.1900556,11.2905151 23.2656318,11.2417274 C24.0022013,10.8424603 24.557102,10.1059877 24.557102,9.20335753 C24.5561483,7.46830959 23.1627576,6.78691233 21.1309033,6.79005616 C21.1309033,6.79005616 17.0605192,6.78691233 16.7974331,6.78691233 C16.4609166,6.78691233 16.2856848,6.97752192 16.2856848,7.30727534 L16.2856848,16.1703301 C16.2856848,16.5761178 16.4637775,16.7348233 16.7607179,16.7348233 C17.0581351,16.7357548 21.6480159,16.7357548 21.6480159,16.7357548 C23.7182543,16.7357548 25.2420556,15.8167068 25.2420556,13.7968507 C25.2420556,12.5571315 24.445049,11.6210836 23.1042278,11.329289 L23.1042278,11.329289 Z M18.5267444,8.48784384 L20.8024927,8.48784384 C21.7289563,8.48784384 22.2386781,8.84333014 22.2386781,9.59028219 C22.2386781,10.3462 21.6546914,10.7339397 20.8681748,10.7339397 L18.5253139,10.7339397 L18.5267444,8.48784384 Z M21.0866781,15.0345904 L18.5253139,15.0345904 L18.5253139,12.3665219 L21.1095656,12.3665219 C22.1521351,12.3665219 22.8934728,12.7833712 22.8934728,13.7231452 C22.8934728,14.7573507 21.9715391,15.0345904 21.0866781,15.0345904 L21.0866781,15.0345904 Z M13.8043073,6.78691233 L12.4105589,6.78691233 C12.1674993,6.79005616 11.9690225,6.98043288 11.966996,7.21959726 L11.966996,16.3022548 C11.9690225,16.5413027 12.1666649,16.7357548 12.4105589,16.7357548 L13.8043073,16.7357548 C14.0477245,16.7348233 14.2447709,16.5413027 14.2447709,16.3022548 L14.2447709,7.21959726 C14.2447709,6.98043288 14.0477245,6.78691233 13.8043073,6.78691233 L13.8043073,6.78691233 Z M9.94026755,6.78691233 L8.70422781,6.78691233 C8.29988344,6.78691233 8.17924768,6.94014521 8.04895629,7.49078219 C7.58918146,9.42016575 7.02903576,12.4496589 5.91577748,14.0513849 C5.91577748,14.0513849 5.65817483,14.4740562 5.31450596,14.4740562 C4.96773775,14.4725425 4.71073113,14.0513849 4.71073113,14.0513849 C3.59926093,12.4496589 2.8448106,9.42016575 2.38885033,7.49078219 C2.25689007,6.94014521 2.13518146,6.78691233 1.73238675,6.78609726 L0.493843709,6.78691233 C0.076386755,6.78691233 -0.0462754967,7.13052192 0.0147576159,7.42941918 C0.405274172,9.40526164 1.0742543,12.4162411 2.64120795,15.0191041 C3.38290331,16.2519534 4.0779894,16.9291589 5.31295629,16.9331178 C6.54744636,16.9291589 7.24467815,16.2519534 7.98375099,15.0191041 C9.55070464,12.4162411 10.0299099,9.40526164 10.4199497,7.43104932 C10.4808636,7.13052192 10.3587974,6.78691233 9.94026755,6.78691233 L9.94026755,6.78691233 Z" id="Fill-7" fill="#0066B2"></path>
                    </g>
                </g>
            </g>
        </g>
    </g>
</svg>