<?xml version="1.0" encoding="UTF-8"?>
<svg width="28px" height="28px" viewBox="0 0 28 28" version="1.1" xmlns="http://www.w3.org/2000/svg" xmlns:xlink="http://www.w3.org/1999/xlink">
    <!-- Generator: Sketch 55.2 (78181) - https://sketchapp.com -->
    <title>bank-sg</title>
    <desc>Created with Sketch.</desc>
    <defs>
        <rect id="path-1" x="0" y="0" width="36" height="36"></rect>
        <polygon id="path-3" points="0 27.8534031 0 0.130764398 27.8685474 0.130764398 27.8685474 27.8534031"></polygon>
    </defs>
    <g id="Page-1" stroke="none" stroke-width="1" fill="none" fill-rule="evenodd">
        <g id="bank-sg" transform="translate(-4.000000, -4.000000)">
            <mask id="mask-2" fill="white">
                <use xlink:href="#path-1"></use>
            </mask>
            <g id="Mask"></g>
            <g id="sgbank" mask="url(#mask-2)">
                <g transform="translate(4.000000, 4.000000)" id="Page-1">
                    <g>
                        <g id="Group-3" transform="translate(0.000000, 0.015832)">
                            <mask id="mask-4" fill="white">
                                <use xlink:href="#path-3"></use>
                            </mask>
                            <g id="Clip-2"></g>
                            <path d="M26.6677158,14.9937948 L14.9413158,26.6588 C14.3873579,27.2098576 13.4810421,27.2098576 12.9270842,26.6588 L1.20083158,14.994088 C0.647021053,14.4430304 0.647021053,13.5414597 1.20083158,12.9904021 L12.9273789,1.32539686 C13.4813368,0.774339267 14.3876526,0.774339267 14.9416105,1.32539686 L26.6677158,12.9901089 C27.2216737,13.5411665 27.2216737,14.4427372 26.6677158,14.9937948 M27.2595474,12.5231979 L15.4108316,0.736517277 C14.5988316,-0.0712314136 13.2700105,-0.0712314136 12.4580105,0.736517277 L0.609,12.5234911 C-0.203,13.3313864 -0.203,14.6531037 0.609,15.460999 L12.4577158,27.247533 C13.2697158,28.0554283 14.5985368,28.0554283 15.4103895,27.247533 L27.2595474,15.4607058 C28.0715474,14.6528105 28.0715474,13.3309466 27.2595474,12.5231979" id="Fill-1" fill="#1367AE" mask="url(#mask-4)"></path>
                        </g>
                        <path d="M19.6223853,10.2091518 L19.6223853,8.76062827 C19.6223853,8.76062827 12.7984905,5.74996859 7.94476421,8.76062827 C3.06244842,12.2824712 6.71703789,16.2587644 6.71703789,16.2587644 C6.71703789,16.2587644 8.97251158,18.5876021 11.9704274,19.3828901 L12.5128905,17.9343665 C12.5128905,17.9343665 7.03108,16.2587644 8.43019579,11.9131937 C10.7712905,7.25537173 16.59588,7.96534031 19.6223853,10.2091518" id="Fill-4" fill="#1367AE"></path>
                        <polygon id="Fill-6" fill="#1367AE" points="10.7142147 14.8386953 11.8277305 16.5996168 13.4837095 16.4575644 11.8847621 21.4563707 13.8690779 21.5273236 15.62512 16.3866115 22.8343832 15.9037215 23.3482568 14.8386953"></polygon>
                        <path d="M15.1968674,18.3179372 L15.0826568,19.6669215 C15.0826568,19.6669215 17.5381095,19.4965759 19.4509516,18.1191518 L19.6936674,16.4859162 C19.6936674,16.4859162 17.7806779,18.0622723 15.1968674,18.3179372" id="Fill-8" fill="#1367AE"></path>
                        <path d="M12.7128989,13.9439414 L9.27228842,13.9439414 L9.90052,13.205533 C9.90052,13.205533 10.3858042,12.6232503 11.0710674,12.6232503 L11.1709832,12.0837738 L12.3415305,11.6008838 L12.3130884,10.9334283 L11.3282253,10.9334283 C11.3282253,10.9334283 12.2274674,10.0103079 12.7128989,9.78308272 C12.7128989,9.78308272 13.4408989,9.32863246 14.0689832,9.08718743 L15.5394253,10.2801927 L15.5394253,11.629177 L18.3375095,12.4954178 C18.3375095,12.4954178 18.8513832,12.6943497 18.8084989,13.2197529 L19.8220989,13.4028524 L19.90772,13.9439414 L14.2260779,13.9439414 L14.2260779,12.8079623 L12.7128989,12.8079623 L12.7128989,13.9439414 Z" id="Fill-10" fill="#1367AE"></path>
                    </g>
                </g>
            </g>
        </g>
    </g>
</svg>