<?xml version="1.0" encoding="UTF-8"?>
<svg width="54px" height="18px" viewBox="0 0 54 18" version="1.1" xmlns="http://www.w3.org/2000/svg" xmlns:xlink="http://www.w3.org/1999/xlink">
    <!-- Generator: Sketch 55.2 (78181) - https://sketchapp.com -->
    <title>logo-zalopay</title>
    <desc>Created with Sketch.</desc>
    <g id="HUONG-DAN" stroke="none" stroke-width="1" fill="none" fill-rule="evenodd">
        <g id="CONG-ZALOPAY" transform="translate(-128.000000, -1799.000000)">
            <g id="Group-16" transform="translate(20.000000, 1553.000000)">
                <g id="Group-14" transform="translate(35.000000, 107.000000)">
                    <g id="zpgateway-step11" transform="translate(0.000000, 29.000000)">
                        <g id="Group-3" transform="translate(10.000000, 61.000000)">
                            <g id="Group" transform="translate(18.000000, 48.600000)">
                                <g id="logo-zalopay" transform="translate(45.000000, 1.000000)">
                                    <g>
                                        <g id="XMLID_139_" transform="translate(0.000000, 1.159975)" fill="#008FE5" fill-rule="nonzero">
                                            <path d="M16.3866837,5.02414097 C16.1654289,4.792146 15.8888604,4.67614852 15.550064,4.67614852 C15.0522407,4.67614852 14.6927017,4.92264317 14.4645327,5.42288232 C13.9805378,4.82114537 13.3167734,4.52390183 12.4732394,4.52390183 C11.4637644,4.52390183 10.6133163,4.92989301 9.92189501,5.74912524 C9.23047375,6.56835746 8.89167734,7.56883575 8.89167734,8.74331026 C8.89167734,9.91778477 9.23738796,10.9182631 9.92189501,11.7374953 C10.6133163,12.5567275 11.4637644,12.9627187 12.4732394,12.9627187 C13.3167734,12.9627187 13.9805378,12.6654751 14.4645327,12.0637382 C14.6927017,12.5639773 15.0522407,12.810472 15.550064,12.810472 C15.8888604,12.810472 16.1654289,12.6944745 16.3866837,12.4552297 C16.6079385,12.2232347 16.7116517,11.933241 16.7116517,11.5924984 L16.7116517,5.87237256 C16.7116517,5.54612964 16.6079385,5.26338578 16.3866837,5.02414097 Z M13.9667093,10.1642794 C13.6832266,10.5485211 13.2960307,10.737017 12.7982074,10.737017 C12.3003841,10.737017 11.9131882,10.5485211 11.6297055,10.1642794 C11.3462228,9.78003776 11.2079385,9.30879799 11.2079385,8.74331026 C11.2079385,8.17782253 11.3462228,7.70658276 11.6297055,7.3223411 C11.9131882,6.93809943 12.3003841,6.74960352 12.7982074,6.74960352 C13.2960307,6.74960352 13.6832266,6.93809943 13.9667093,7.3223411 C14.2501921,7.70658276 14.3884763,8.17782253 14.3884763,8.74331026 C14.3953905,9.30879799 14.2501921,9.7872876 13.9667093,10.1642794 Z" id="XMLID_145_"></path>
                                            <path d="M19.3390525,12.6437256 C19.1177977,12.8757206 18.8412292,12.9989679 18.509347,12.9989679 C18.1705506,12.9989679 17.8939821,12.8829704 17.6727273,12.6437256 C17.4514725,12.4117306 17.3477593,12.1217369 17.3477593,11.7809943 L17.3477593,1.24697294 C17.3477593,0.906230334 17.4583867,0.623486469 17.6727273,0.384241661 C17.8939821,0.152246696 18.1705506,0.0362492133 18.509347,0.0362492133 C18.8481434,0.0362492133 19.1247119,0.152246696 19.3390525,0.384241661 C19.5603073,0.616236627 19.6640205,0.906230334 19.6640205,1.24697294 L19.6640205,11.7737445 C19.6709347,12.1217369 19.5603073,12.4044808 19.3390525,12.6437256 L19.3390525,12.6437256 Z" id="XMLID_144_"></path>
                                            <path d="M27.0276569,5.75637508 C26.2809219,4.93714286 25.3336748,4.53115167 24.1859155,4.53115167 C23.0381562,4.53115167 22.0978233,4.93714286 21.3649168,5.74187539 C20.6389245,6.54660793 20.2724712,7.55433606 20.2724712,8.7505601 C20.2724712,9.94678414 20.6389245,10.9545123 21.3649168,11.7592448 C22.0909091,12.5712272 23.031242,12.9699685 24.1859155,12.9699685 C25.3336748,12.9699685 26.2809219,12.5639773 27.0276569,11.7447451 C27.7398207,10.9472624 28.0993598,9.94678414 28.0993598,8.7505601 C28.0993598,7.54708622 27.746735,6.55385777 27.0276569,5.75637508 Z M25.3544174,10.1642794 C25.0709347,10.5485211 24.6837388,10.737017 24.1859155,10.737017 C23.6880922,10.737017 23.3008963,10.5485211 23.0174136,10.1642794 C22.7339309,9.78003776 22.5956466,9.30879799 22.5956466,8.74331026 C22.5956466,8.17782253 22.7339309,7.70658276 23.0174136,7.3223411 C23.3008963,6.93809943 23.6880922,6.74960352 24.1859155,6.74960352 C24.6837388,6.74960352 25.0709347,6.93809943 25.3544174,7.3223411 C25.6379001,7.70658276 25.7761844,8.17782253 25.7761844,8.74331026 C25.7761844,9.30879799 25.6379001,9.7872876 25.3544174,10.1642794 Z" id="XMLID_141_"></path>
                                            <path d="M7.6056338,4.80664569 C8.4284251,3.69741976 8.83636364,2.95068597 8.83636364,2.5664443 C8.83636364,1.67471366 8.30396927,1.23247325 7.23226633,1.23247325 L1.5971831,1.23247325 C1.1546735,1.23247325 0.808962868,1.34122089 0.566965429,1.55871617 C0.32496799,1.77621145 0.200512164,2.06620516 0.200512164,2.41419761 C0.200512164,2.76219006 0.32496799,3.05218376 0.566965429,3.26967904 C0.808962868,3.48717432 1.1546735,3.59592196 1.5971831,3.59592196 L5.46914213,3.59592196 L0.518565941,10.3092763 C0.193597951,10.7515167 0.0345710627,11.1357583 0.0345710627,11.4765009 C0.0345710627,12.4552297 0.64993598,12.9409692 1.88066581,12.9409692 L7.68860435,12.9409692 C8.61510883,12.9409692 9.07836108,12.534978 9.07836108,11.7157458 C9.07836108,10.8965135 8.61510883,10.4905223 7.68860435,10.4905223 L3.40870679,10.4905223 L7.6056338,4.80664569 L7.6056338,4.80664569 Z" id="XMLID_140_"></path>
                                        </g>
                                        <g id="XMLID_123_" transform="translate(29.177977, 0.000000)" fill="#04BE04" fill-rule="nonzero">
                                            <path d="M4.96440461,4.79939585 L3.43636364,4.79939585 L3.43636364,8.12707363 L4.96440461,8.12707363 C5.42074264,8.12707363 5.79411012,7.96757709 6.07759283,7.65583386 C6.36107554,7.34409062 6.50627401,6.94534928 6.50627401,6.45960982 C6.50627401,5.9811202 6.36107554,5.58237885 6.07759283,5.26338578 C5.79411012,4.95889239 5.42074264,4.79939585 4.96440461,4.79939585 Z" id="XMLID_138_"></path>
                                            <path d="M12.5838668,8.0545752 C12.099872,8.0545752 11.7195903,8.24307111 11.4430218,8.61281309 C11.1664533,8.98980491 11.028169,9.446545 11.028169,9.99753304 C11.028169,10.5485211 11.1664533,11.012511 11.4430218,11.382253 C11.7195903,11.751995 12.099872,11.9404909 12.5838668,11.9404909 C13.0678617,11.9404909 13.4481434,11.751995 13.7247119,11.382253 C14.0012804,11.0052612 14.1395647,10.5485211 14.1395647,9.99753304 C14.1395647,9.446545 14.0012804,8.98255507 13.7247119,8.61281309 C13.4481434,8.24307111 13.0678617,8.0545752 12.5838668,8.0545752 Z" id="XMLID_128_"></path>
                                            <path d="M23.4322663,0.043499056 L1.38975672,0.043499056 C0.64993598,0.043499056 0.0553137004,0.674235368 0.0553137004,1.44271869 L0.0553137004,15.0506734 C0.0553137004,15.8264065 0.656850192,16.449893 1.38975672,16.449893 L18.7098592,16.449893 C18.5231754,16.2686469 18.4332907,16.0511517 18.4332907,15.804657 C18.4332907,15.6016614 18.4747759,15.391416 18.5646607,15.1739207 L19.387452,13.2527124 L17.1057618,7.28609188 C17.0366197,7.1193455 17.0020487,6.93084959 17.0020487,6.727854 C17.0020487,6.46685966 17.1057618,6.24936438 17.3201024,6.06811831 C17.5275288,5.88687225 17.7487836,5.79987413 17.9769526,5.79987413 C18.4816901,5.79987413 18.8274008,6.05361863 19.0071703,6.56835746 L20.4245839,10.642769 L21.9457106,6.56835746 C22.1393086,6.05361863 22.5403329,5.79987413 23.0381562,5.79987413 C23.2663252,5.79987413 23.48758,5.88687225 23.6950064,6.06811831 C23.9024328,6.24936438 24.0130602,6.46685966 24.0130602,6.727854 C24.0130602,6.93084959 23.9784891,7.11209566 23.909347,7.28609188 L20.4729834,15.8844053 C20.3830986,16.1236501 20.2724712,16.312146 20.1411012,16.449893 L23.4184379,16.449893 C24.1582586,16.449893 24.7528809,15.8191567 24.7528809,15.0506734 L24.7528809,1.44271869 C24.7736236,0.666985525 24.1720871,0.043499056 23.4322663,0.043499056 Z M7.73700384,9.1928005 C7.03866837,9.85978603 6.16056338,10.2005286 5.10268886,10.2005286 L3.44327785,10.2005286 L3.44327785,12.9047199 C3.44327785,13.2889616 3.33956466,13.593455 3.13213828,13.8109503 C2.92471191,14.0284456 2.65505762,14.1299434 2.32317542,14.1299434 C1.99129321,14.1299434 1.72163892,14.0211957 1.51421255,13.8109503 C1.30678617,13.593455 1.20307298,13.2962115 1.20307298,12.9047199 L1.20307298,3.95116425 C1.20307298,3.13193203 1.59026889,2.72594084 2.3715749,2.72594084 L5.01971831,2.72594084 C6.12599232,2.72594084 7.04558259,3.07393329 7.76466069,3.76991819 C8.49065301,4.46590308 8.85019206,5.37213342 8.85019206,6.48135935 C8.84327785,7.59783512 8.46991037,8.50406545 7.73700384,9.1928005 Z M16.4074264,12.7959723 C16.4074264,13.1294651 16.3037132,13.4049591 16.0893726,13.6369541 C15.875032,13.868949 15.6053777,13.9776967 15.2734955,13.9776967 C14.7895006,13.9776967 14.4368758,13.731202 14.215621,13.2454626 C13.7385403,13.8326998 13.0886044,14.1226935 12.2658131,14.1226935 C11.2770807,14.1226935 10.4473752,13.7239522 9.76978233,12.9264695 C9.09910371,12.1289868 8.7603073,11.0197609 8.7603073,9.87428571 C8.7603073,8.72156073 9.09910371,7.75008181 9.76978233,6.94534928 C10.4404609,6.14786658 11.2770807,5.74912524 12.2658131,5.74912524 C13.0886044,5.74912524 13.7385403,6.03911894 14.215621,6.6263562 C14.4368758,6.14061674 14.7895006,5.89412209 15.2734955,5.89412209 C15.6053777,5.89412209 15.875032,6.01011957 16.0893726,6.23486469 C16.3037132,6.46685966 16.4074264,6.74235368 16.4074264,7.07584644 L16.4074264,12.7959723 Z" id="XMLID_124_"></path>
                                        </g>
                                    </g>
                                </g>
                            </g>
                        </g>
                    </g>
                </g>
            </g>
        </g>
    </g>
</svg>